<svg width="651" height="570" viewBox="0 0 651 570" fill="none" xmlns="http://www.w3.org/2000/svg">
<path d="M7.93176 570C2.64392 570 0 567.155 0 561.465V8.53476C0 2.84492 2.64392 0 7.93176 0H142.162C147.856 0 150.703 2.84492 150.703 8.53476V62.7914C150.703 68.4813 147.856 71.3262 142.162 71.3262H87.2493V497.455H142.162C147.856 497.455 150.703 500.299 150.703 505.989V561.465C150.703 567.155 147.856 570 142.162 570H7.93176Z" fill="#FDF5ED"/>
<path d="M508.838 570C503.144 570 500.297 567.155 500.297 561.465V505.989C500.297 500.299 503.144 497.455 508.838 497.455H563.751V71.3262H508.838C503.144 71.3262 500.297 68.4813 500.297 62.7914V8.53476C500.297 2.84492 503.144 0 508.838 0H642.458C648.153 0 651 2.84492 651 8.53476V561.465C651 567.155 648.153 570 642.458 570H508.838Z" fill="#FDF5ED"/>
</svg>
