<svg width="16" height="11" viewBox="0 0 16 11" fill="none" xmlns="http://www.w3.org/2000/svg">
<path d="M5.11644 0.160774C5.40209 -0.0690814 5.82364 -0.0523783 6.08993 0.21028C6.35621 0.472939 6.37314 0.888751 6.14012 1.17052L6.08993 1.2247L2.48291 4.78262H10.4242L10.6998 4.77235C11.3765 4.72365 12.2771 4.49572 13.0293 3.96156C13.8522 3.37719 14.5454 2.39669 14.5454 0.717488C14.5454 0.321292 14.8711 0.000111535 15.2727 0.0001115C15.6744 0.000111499 16 0.321292 16 0.717488C16 2.86414 15.077 4.27503 13.8797 5.12543C12.8645 5.84642 11.6882 6.14177 10.7907 6.2043L10.4242 6.21738H2.48291L6.08993 9.7753L6.14012 9.82948C6.37315 10.1112 6.35621 10.5271 6.08993 10.7897C5.82364 11.0524 5.4021 11.0691 5.11644 10.8392L5.06152 10.7897L0.213014 6.00721C-0.0710043 5.72705 -0.0710048 5.27294 0.213014 4.99279L5.06152 0.21028L5.11644 0.160774Z" fill="#FDF5ED"/>
</svg>
