<svg xmlns="http://www.w3.org/2000/svg" width="16" height="17" viewBox="0 0 16 17" fill="none">
<path d="M6.13945 10.756C5.88258 10.756 5.67434 10.9642 5.67434 11.2211C5.67434 11.478 5.88258 11.6862 6.13945 11.6862H9.86038C10.1173 11.6862 10.3255 11.478 10.3255 11.2211C10.3255 10.9642 10.1173 10.756 9.86038 10.756H6.13945Z" fill="black" fill-opacity="0.2"/>
<path fill-rule="evenodd" clip-rule="evenodd" d="M7.99992 0.833496C7.56078 0.833496 7.1618 0.959276 6.72895 1.16977C6.31052 1.37325 5.82716 1.67324 5.2234 2.04796L3.9418 2.84336C3.37051 3.19791 2.91306 3.48181 2.56048 3.75183C2.19536 4.03144 1.91493 4.31622 1.71236 4.68629C1.51022 5.05559 1.41919 5.44853 1.37554 5.913C1.33324 6.36313 1.33325 6.91357 1.33325 7.60387V8.60395C1.33324 9.78466 1.33324 10.7166 1.42795 11.4453C1.52511 12.1929 1.72926 12.7963 2.19053 13.2735C2.65392 13.7528 3.24361 13.9669 3.97363 14.0685C4.68115 14.1668 5.58476 14.1668 6.72355 14.1668H9.27626C10.415 14.1668 11.3187 14.1668 12.0262 14.0685C12.7562 13.9669 13.3459 13.7528 13.8093 13.2735C14.2706 12.7963 14.4747 12.1929 14.5719 11.4453C14.6666 10.7166 14.6666 9.78466 14.6666 8.60395V7.60386C14.6666 6.91358 14.6666 6.36312 14.6243 5.913C14.5807 5.44853 14.4896 5.05559 14.2875 4.68629C14.0849 4.31622 13.8045 4.03144 13.4394 3.75183C13.0868 3.48181 12.6293 3.19791 12.0581 2.84337L10.7764 2.04795C10.1727 1.67324 9.68931 1.37324 9.27089 1.16977C8.83804 0.959276 8.43906 0.833496 7.99992 0.833496ZM5.69265 2.85155C6.32258 2.4606 6.7655 2.18639 7.13576 2.00633C7.4965 1.83091 7.75197 1.76373 7.99992 1.76373C8.24787 1.76373 8.50334 1.83091 8.86408 2.00633C9.23434 2.18638 9.67726 2.4606 10.3072 2.85155L11.5475 3.62132C12.1434 3.99114 12.5617 4.25139 12.8738 4.49036C13.1774 4.72289 13.3521 4.91477 13.4715 5.13294C13.5913 5.35188 13.6613 5.60785 13.6981 6.00003C13.7359 6.40161 13.7364 6.90842 13.7364 7.62663V8.5699C13.7364 9.7922 13.7354 10.6637 13.6494 11.3254C13.5649 11.9754 13.4058 12.3525 13.1405 12.6269C12.8774 12.8991 12.5191 13.0607 11.8981 13.1471C11.262 13.2355 10.4232 13.2366 9.24023 13.2366H6.75961C5.57665 13.2366 4.7378 13.2355 4.10176 13.1471C3.48076 13.0607 3.12248 12.8991 2.85932 12.6269C2.59403 12.3525 2.4349 11.9754 2.35042 11.3254C2.26441 10.6637 2.26348 9.7922 2.26348 8.5699V7.62663C2.26348 6.90842 2.26396 6.40161 2.30169 6.00003C2.33854 5.60785 2.40851 5.35188 2.52835 5.13294C2.64777 4.91477 2.82245 4.72289 3.12607 4.49036C3.43812 4.25139 3.85647 3.99114 4.45234 3.62133L5.69265 2.85155Z" fill="black" fill-opacity="0.2"/>
</svg>