<svg width="22" height="22" viewBox="0 0 22 22" fill="none" xmlns="http://www.w3.org/2000/svg">
<path d="M16.1163 12.8333C16.6814 12.8333 17.1395 12.3643 17.1395 11.7857C17.1395 11.2071 16.6814 10.7381 16.1163 10.7381C15.5512 10.7381 15.093 11.2071 15.093 11.7857C15.093 12.3643 15.5512 12.8333 16.1163 12.8333Z" fill="#73270D"/>
<path d="M16.1163 17.0238C16.6814 17.0238 17.1395 16.5548 17.1395 15.9762C17.1395 15.3976 16.6814 14.9286 16.1163 14.9286C15.5512 14.9286 15.093 15.3976 15.093 15.9762C15.093 16.5548 15.5512 17.0238 16.1163 17.0238Z" fill="#73270D"/>
<path d="M12.0233 11.7857C12.0233 12.3643 11.5651 12.8333 11 12.8333C10.4349 12.8333 9.97674 12.3643 9.97674 11.7857C9.97674 11.2071 10.4349 10.7381 11 10.7381C11.5651 10.7381 12.0233 11.2071 12.0233 11.7857Z" fill="#73270D"/>
<path d="M12.0233 15.9762C12.0233 16.5548 11.5651 17.0238 11 17.0238C10.4349 17.0238 9.97674 16.5548 9.97674 15.9762C9.97674 15.3976 10.4349 14.9286 11 14.9286C11.5651 14.9286 12.0233 15.3976 12.0233 15.9762Z" fill="#73270D"/>
<path d="M5.88372 12.8333C6.44885 12.8333 6.90698 12.3643 6.90698 11.7857C6.90698 11.2071 6.44885 10.7381 5.88372 10.7381C5.31859 10.7381 4.86047 11.2071 4.86047 11.7857C4.86047 12.3643 5.31859 12.8333 5.88372 12.8333Z" fill="#73270D"/>
<path d="M5.88372 17.0238C6.44885 17.0238 6.90698 16.5548 6.90698 15.9762C6.90698 15.3976 6.44885 14.9286 5.88372 14.9286C5.31859 14.9286 4.86047 15.3976 4.86047 15.9762C4.86047 16.5548 5.31859 17.0238 5.88372 17.0238Z" fill="#73270D"/>
<path fill-rule="evenodd" clip-rule="evenodd" d="M5.88372 0C6.30757 0 6.65116 0.351776 6.65116 0.785714V1.58475C7.32856 1.57141 8.07485 1.57142 8.89563 1.57143H13.1042C13.925 1.57142 14.6714 1.57141 15.3488 1.58475V0.785714C15.3488 0.351776 15.6924 0 16.1163 0C16.5401 0 16.8837 0.351776 16.8837 0.785714V1.65219C17.1497 1.67295 17.4016 1.69905 17.6399 1.73186C18.8396 1.89699 19.8106 2.24492 20.5764 3.02892C21.3422 3.81292 21.682 4.80706 21.8433 6.03531C22 7.22876 22 8.7537 22 10.679V12.8924C22 14.8177 22 16.3427 21.8433 17.5361C21.682 18.7644 21.3422 19.7585 20.5764 20.5425C19.8106 21.3265 18.8396 21.6744 17.6399 21.8396C16.4742 22 14.9848 22 13.1043 22H8.89577C7.01529 22 5.52577 22 4.36007 21.8396C3.16038 21.6744 2.18936 21.3265 1.4236 20.5425C0.657831 19.7585 0.31799 18.7644 0.156696 17.5361C-2.84675e-05 16.3427 -1.57762e-05 14.8177 3.2535e-07 12.8924V10.679C-1.57762e-05 8.75372 -2.84675e-05 7.22877 0.156696 6.03531C0.31799 4.80706 0.657831 3.81292 1.4236 3.02892C2.18936 2.24492 3.16038 1.89699 4.36007 1.73186C4.59841 1.69905 4.85029 1.67295 5.11628 1.65219V0.785714C5.11628 0.351776 5.45988 0 5.88372 0ZM4.56459 3.28927C3.5351 3.43098 2.94198 3.69673 2.50892 4.14009C2.07587 4.58345 1.8163 5.1907 1.67789 6.2447C1.65445 6.4232 1.63485 6.61112 1.61847 6.80952H20.3815C20.3651 6.61112 20.3455 6.4232 20.3221 6.2447C20.1837 5.1907 19.9241 4.58345 19.4911 4.14009C19.058 3.69673 18.4649 3.43098 17.4354 3.28927C16.3838 3.14453 14.9977 3.14286 13.0465 3.14286H8.95349C7.00232 3.14286 5.61615 3.14453 4.56459 3.28927ZM1.53488 10.7381C1.53488 9.84341 1.53521 9.06476 1.54827 8.38095H20.4517C20.4648 9.06476 20.4651 9.84341 20.4651 10.7381V12.8333C20.4651 14.831 20.4635 16.2501 20.3221 17.3267C20.1837 18.3807 19.9241 18.988 19.4911 19.4313C19.058 19.8747 18.4649 20.1405 17.4354 20.2822C16.3838 20.4269 14.9977 20.4286 13.0465 20.4286H8.95349C7.00232 20.4286 5.61615 20.4269 4.56459 20.2822C3.5351 20.1405 2.94198 19.8747 2.50892 19.4313C2.07587 18.988 1.8163 18.3807 1.67789 17.3267C1.53651 16.2501 1.53488 14.831 1.53488 12.8333V10.7381Z" fill="#73270D"/>
</svg>
