<svg width="13" height="13" viewBox="0 0 13 13" fill="none" xmlns="http://www.w3.org/2000/svg">
<path d="M0.825242 0.52555C0.56327 0.438226 0.28011 0.579806 0.192786 0.841778C0.105462 1.10375 0.247042 1.38691 0.509014 1.47423L0.685621 1.5331C1.13656 1.68341 1.43469 1.78359 1.65433 1.88576C1.8623 1.98251 1.95222 2.06038 2.00983 2.14031C2.06744 2.22025 2.11288 2.33017 2.1389 2.55807C2.16637 2.79874 2.16713 3.11325 2.16713 3.58858L2.16713 5.36981C2.16711 6.28154 2.1671 7.01641 2.24481 7.59439C2.32549 8.19446 2.49808 8.69971 2.89936 9.10099C3.30064 9.50227 3.80589 9.67487 4.40596 9.75554C4.98394 9.83325 5.71881 9.83324 6.63054 9.83323H11.3338C11.6099 9.83323 11.8338 9.60937 11.8338 9.33323C11.8338 9.05708 11.6099 8.83323 11.3338 8.83323H6.66713C5.71018 8.83323 5.04278 8.83216 4.53921 8.76446C4.05002 8.69869 3.79098 8.57839 3.60647 8.39389C3.44968 8.23709 3.33926 8.02648 3.26926 7.66656H10.0152C10.6548 7.66656 10.9746 7.66656 11.225 7.5014C11.4755 7.33624 11.6015 7.04229 11.8534 6.4544L12.1392 5.78773C12.6788 4.52852 12.9486 3.89891 12.6522 3.4494C12.3558 2.99989 11.6708 2.99989 10.3009 2.99989H3.16383C3.1599 2.79477 3.15129 2.6097 3.13244 2.44464C3.09554 2.12142 3.01514 1.82485 2.82107 1.5556C2.62701 1.28635 2.37108 1.11629 2.07612 0.979073C1.79863 0.849984 1.44575 0.732369 1.02817 0.593191L0.825242 0.52555Z" fill="#111111"/>
<path d="M4.33366 10.9999C4.88594 10.9999 5.33366 11.4476 5.33366 11.9999C5.33366 12.5522 4.88594 12.9999 4.33366 12.9999C3.78137 12.9999 3.33366 12.5522 3.33366 11.9999C3.33366 11.4476 3.78137 10.9999 4.33366 10.9999Z" fill="#111111"/>
<path d="M10.3337 11C10.8859 11 11.3337 11.4477 11.3337 12C11.3337 12.5523 10.8859 13 10.3337 13C9.78137 13 9.33366 12.5523 9.33366 12C9.33366 11.4477 9.78137 11 10.3337 11Z" fill="#111111"/>
</svg>
