<svg width="18" height="72" viewBox="0 0 18 72" fill="none" xmlns="http://www.w3.org/2000/svg">
<path d="M9.84876 0C9.84876 0 6.92401 1.83978 4.94272 6.0663C2.96144 10.2928 4.13399 15.8122 4.13399 15.8122C4.13399 15.8122 5.05615 19.5912 7.4429 23.4696C9.82966 27.3481 11.5856 30.6298 11.9716 31.5249C12.0226 31.6431 12.0773 31.764 12.1348 31.8911C12.5129 32.7262 13.0135 33.832 13.3868 36.2486C13.8168 39.0331 12.2546 43.2099 12.2546 43.2099L11.1224 46.3425C11.1224 46.3425 12.7263 45.2983 14.1415 43.8563C15.4639 42.509 15.9625 41.5957 16.4456 40.7109C16.4795 40.6488 16.5133 40.5868 16.5474 40.5249C17.0663 39.5801 17.3022 38.9834 17.7267 37.0442C18.1513 35.105 17.9834 33.0166 17.8682 31.9724C17.8652 31.9451 17.8622 31.9171 17.859 31.8885C17.7425 30.82 17.5193 28.7739 15.3141 24.4641C14.18 22.2475 13.1896 20.7669 12.2819 19.41C11.3773 18.0578 10.5549 16.8285 9.7544 15.116C8.28562 11.9741 8.1878 10.2083 8.12178 9.01658C8.11571 8.90696 8.1099 8.80219 8.10333 8.70166C8.02525 7.50829 8.76375 3.33149 8.95245 2.58563C9.14114 1.83978 9.84876 0 9.84876 0Z" fill="#EBE2DF"/>
<path d="M6.05929 25.6575C6.05929 25.6575 3.13453 27.4972 1.15324 31.7238C-0.828041 35.9503 0.344514 41.4696 0.344514 41.4696C0.344514 41.4696 1.26667 45.2486 3.65343 49.1271C6.04018 53.0055 7.79611 56.2873 8.18208 57.1823C8.23307 57.3006 8.28779 57.4214 8.34535 57.5486C8.72343 58.3837 9.22407 59.4895 9.59728 61.9061C10.0273 64.6906 8.46512 68.8674 8.46512 68.8674L7.33297 72C7.33297 72 8.93685 70.9558 10.3521 69.5138C11.6744 68.1664 12.173 67.2532 12.6561 66.3684C12.69 66.3063 12.7239 66.2443 12.7579 66.1823C13.2768 65.2376 13.5127 64.6409 13.9372 62.7017C14.3618 60.7624 14.1939 58.674 14.0788 57.6298C14.0757 57.6026 14.0727 57.5746 14.0696 57.5459C13.953 56.4775 13.7298 54.4314 11.5247 50.1216C10.3905 47.905 9.40009 46.4244 8.49238 45.0675C7.58785 43.7153 6.76547 42.486 5.96492 40.7735C4.49614 37.6316 4.39832 35.8657 4.3323 34.674C4.32623 34.5644 4.32043 34.4597 4.31385 34.3591C4.23577 33.1658 4.97428 28.989 5.16297 28.2431C5.35166 27.4972 6.05929 25.6575 6.05929 25.6575Z" fill="#EBE2DF"/>
</svg>
