<svg width="32" height="32" viewBox="0 0 32 32" fill="none" xmlns="http://www.w3.org/2000/svg">
<path d="M17.449 28.5173L18.0944 28.8993L17.449 28.5173ZM18.1718 27.2961L17.5263 26.9141H17.5263L18.1718 27.2961ZM13.8284 27.2961L13.1829 27.6781L13.8284 27.2961ZM14.5512 28.5173L15.1966 28.1352H15.1966L14.5512 28.5173ZM3.17422 21.2182L3.86713 20.9312H3.86713L3.17422 21.2182ZM10.3862 25.3223L10.3733 26.0722L10.3862 25.3223ZM6.78219 24.8262L6.49518 25.5191H6.49518L6.78219 24.8262ZM28.8259 21.2182L29.5189 21.5052L28.8259 21.2182ZM21.6139 25.3223L21.601 24.5724L21.6139 25.3223ZM25.218 24.8262L25.505 25.5191L25.218 24.8262ZM26.1501 3.64939L25.7582 4.28887L26.1501 3.64939ZM28.351 5.85033L28.9905 5.45846V5.45846L28.351 5.85033ZM5.85009 3.64939L5.45822 3.00991L5.45822 3.00991L5.85009 3.64939ZM3.64915 5.85033L3.00967 5.45846L3.00967 5.45846L3.64915 5.85033ZM12.5371 25.6134L12.9142 24.9651L12.9142 24.9651L12.5371 25.6134ZM18.0944 28.8993L18.8172 27.6781L17.5263 26.9141L16.8035 28.1352L18.0944 28.8993ZM13.1829 27.6781L13.9057 28.8993L15.1966 28.1352L14.4738 26.9141L13.1829 27.6781ZM16.8035 28.1352C16.4497 28.733 15.5504 28.733 15.1966 28.1352L13.9057 28.8993C14.8404 30.4783 17.1597 30.4783 18.0944 28.8993L16.8035 28.1352ZM14.0001 3.41699H18.0001V1.91699H14.0001V3.41699ZM28.5834 14.0003V15.3337H30.0834V14.0003H28.5834ZM3.41675 15.3337V14.0003H1.91675V15.3337H3.41675ZM1.91675 15.3337C1.91675 16.8765 1.91634 18.0713 1.98192 19.0324C2.04796 20.0003 2.18341 20.786 2.48131 21.5052L3.86713 20.9312C3.65756 20.4253 3.53927 19.8218 3.47844 18.9303C3.41715 18.032 3.41675 16.8971 3.41675 15.3337H1.91675ZM10.3991 24.5724C8.72522 24.5435 7.80494 24.438 7.0692 24.1333L6.49518 25.5191C7.52026 25.9437 8.69953 26.0433 10.3733 26.0722L10.3991 24.5724ZM2.48131 21.5052C3.23406 23.3225 4.67789 24.7664 6.49518 25.5191L7.06921 24.1333C5.61945 23.5328 4.46763 22.381 3.86713 20.9312L2.48131 21.5052ZM28.5834 15.3337C28.5834 16.8971 28.583 18.032 28.5217 18.9303C28.4609 19.8218 28.3426 20.4253 28.133 20.9312L29.5189 21.5052C29.8168 20.786 29.9522 20.0003 30.0182 19.0324C30.0838 18.0713 30.0834 16.8765 30.0834 15.3337H28.5834ZM21.6268 26.0722C23.3006 26.0433 24.4799 25.9437 25.505 25.5191L24.931 24.1333C24.1952 24.438 23.2749 24.5435 21.601 24.5724L21.6268 26.0722ZM28.133 20.9312C27.5325 22.381 26.3807 23.5328 24.931 24.1333L25.505 25.5191C27.3223 24.7664 28.7661 23.3225 29.5189 21.5052L28.133 20.9312ZM18.0001 3.41699C20.1969 3.41699 21.7918 3.41778 23.0396 3.53642C24.2763 3.654 25.0943 3.88202 25.7582 4.28887L26.5419 3.00991C25.6027 2.43436 24.528 2.17118 23.1816 2.04316C21.8463 1.9162 20.1678 1.91699 18.0001 1.91699V3.41699ZM30.0834 14.0003C30.0834 11.8326 30.0842 10.1541 29.9572 8.8188C29.8292 7.47236 29.566 6.39767 28.9905 5.45846L27.7115 6.24221C28.1184 6.90613 28.3464 7.72414 28.464 8.96078C28.5826 10.2086 28.5834 11.8035 28.5834 14.0003H30.0834ZM25.7582 4.28887C26.5543 4.77673 27.2237 5.44609 27.7115 6.24221L28.9905 5.45846C28.379 4.46051 27.5399 3.62146 26.5419 3.00991L25.7582 4.28887ZM14.0001 1.91699C11.8323 1.91699 10.1538 1.9162 8.81855 2.04316C7.47212 2.17118 6.39743 2.43436 5.45822 3.00991L6.24196 4.28887C6.90588 3.88202 7.7239 3.654 8.96054 3.53642C10.2083 3.41778 11.8033 3.41699 14.0001 3.41699V1.91699ZM3.41675 14.0003C3.41675 11.8035 3.41754 10.2086 3.53618 8.96078C3.65376 7.72414 3.88178 6.90613 4.28863 6.24221L3.00967 5.45846C2.43412 6.39767 2.17093 7.47236 2.04292 8.8188C1.91596 10.1541 1.91675 11.8326 1.91675 14.0003H3.41675ZM5.45822 3.00991C4.46026 3.62146 3.62121 4.46051 3.00967 5.45846L4.28863 6.24221C4.77649 5.44609 5.44585 4.77673 6.24196 4.28887L5.45822 3.00991ZM14.4738 26.9141C14.2007 26.4527 13.9699 26.0612 13.7475 25.756C13.5158 25.4382 13.2608 25.1667 12.9142 24.9651L12.1601 26.2618C12.2638 26.3221 12.374 26.4183 12.5353 26.6395C12.7057 26.8734 12.8954 27.1924 13.1829 27.6781L14.4738 26.9141ZM10.3733 26.0722C10.9541 26.0822 11.3385 26.0895 11.6354 26.1224C11.9185 26.1538 12.0588 26.2029 12.1601 26.2618L12.9142 24.9651C12.5652 24.7621 12.197 24.6754 11.8005 24.6315C11.418 24.5892 10.9521 24.5819 10.3991 24.5724L10.3733 26.0722ZM18.8172 27.6781C19.1047 27.1924 19.2944 26.8734 19.4649 26.6395C19.6261 26.4183 19.7364 26.3221 19.84 26.2618L19.0859 24.9651C18.7393 25.1667 18.4843 25.4382 18.2526 25.756C18.0302 26.0612 17.7994 26.4527 17.5263 26.9141L18.8172 27.6781ZM21.601 24.5724C21.048 24.5819 20.5821 24.5892 20.1996 24.6315C19.8032 24.6754 19.4349 24.7621 19.0859 24.9651L19.84 26.2618C19.9413 26.2029 20.0816 26.1538 20.3647 26.1224C20.6616 26.0895 21.046 26.0822 21.6268 26.0722L21.601 24.5724Z" fill="#4CAF50"/>
<path d="M12 14.7733L14.6667 17.3333L20 12" stroke="#4CAF50" stroke-width="1.5" stroke-linecap="round" stroke-linejoin="round"/>
</svg>
