<svg width="20" height="20" viewBox="0 0 20 20" fill="none" xmlns="http://www.w3.org/2000/svg">
<path fill-rule="evenodd" clip-rule="evenodd" d="M12.5643 1.27576C14.2653 -0.425255 17.0232 -0.425255 18.7242 1.27576C20.4253 2.97678 20.4253 5.73468 18.7242 7.4357L9.90071 16.2592C9.3966 16.7634 9.09984 17.0601 8.76971 17.3176C8.3806 17.6211 7.95958 17.8814 7.5141 18.0937C7.13614 18.2738 6.73798 18.4065 6.06161 18.6319L2.96289 19.6648L2.21677 19.9135C1.6116 20.1153 0.944391 19.9577 0.493322 19.5067C0.0422516 19.0556 -0.115254 18.3884 0.0864709 17.7832L1.36807 13.9384C1.59351 13.262 1.72622 12.8639 1.90634 12.4859C2.11865 12.0404 2.37885 11.6194 2.68236 11.2303C2.93986 10.9001 3.23664 10.6034 3.7408 10.0993L12.5643 1.27576ZM2.9307 18.2047L5.57398 17.3236C6.3099 17.0783 6.62257 16.9728 6.91379 16.834C7.26778 16.6653 7.60234 16.4586 7.91155 16.2174C8.16592 16.019 8.40011 15.7865 8.94864 15.238L15.99 8.19661C15.2564 7.93786 14.3113 7.45825 13.4265 6.57349C12.5417 5.68872 12.0621 4.74361 11.8034 4.00999L4.76202 11.0514C4.2135 11.5999 3.98101 11.8341 3.7826 12.0885C3.54143 12.3977 3.33466 12.7322 3.16596 13.0862C3.02717 13.3774 2.92167 13.6901 2.67636 14.426L1.79527 17.0693L2.9307 18.2047ZM12.9352 2.87818C12.967 3.04093 13.0208 3.26217 13.1105 3.52081C13.3125 4.10309 13.6941 4.86779 14.4132 5.58683C15.1322 6.30586 15.8969 6.68747 16.4792 6.88948C16.7378 6.97921 16.9591 7.03298 17.1218 7.06479L17.7376 6.44904C18.8937 5.29294 18.8937 3.41853 17.7376 2.26242C16.5815 1.10632 14.7071 1.10632 13.551 2.26242L12.9352 2.87818Z" fill="#73270D"/>
</svg>
