<svg width="24" height="24" viewBox="0 0 24 24" fill="none" xmlns="http://www.w3.org/2000/svg">
<path d="M16.6202 3H15.4278C12.1135 3 9.41718 5.32508 9.41718 8.18294V10.3703H7.3799C7.27915 10.3703 7.18252 10.4048 7.11127 10.4662C7.04003 10.5277 7 10.611 7 10.6979V13.3186C7 13.4055 7.04003 13.4888 7.11127 13.5502C7.18252 13.6116 7.27915 13.6462 7.3799 13.6462H9.41703V21.6724C9.41703 21.7593 9.45705 21.8426 9.5283 21.9041C9.59955 21.9655 9.69618 22 9.79693 22H12.8362C12.9369 22 13.0336 21.9655 13.1048 21.9041C13.176 21.8426 13.2161 21.7593 13.2161 21.6724V13.6462H16.2391C16.3398 13.6462 16.4364 13.6116 16.5077 13.5502C16.5789 13.4888 16.619 13.4055 16.619 13.3186V10.6979C16.619 10.611 16.5789 10.5277 16.5077 10.4662C16.4364 10.4048 16.3398 10.3703 16.2391 10.3703H13.2161V8.18294C13.2161 7.13139 14.2082 6.27586 15.4277 6.27586H16.6201C16.7209 6.27586 16.8175 6.24135 16.8887 6.17991C16.96 6.11848 17 6.03516 17 5.94828V3.32759C17 3.28457 16.9902 3.24198 16.9711 3.20223C16.9521 3.16249 16.9241 3.12638 16.8888 3.09596C16.8536 3.06553 16.8117 3.0414 16.7656 3.02494C16.7195 3.00847 16.6701 3 16.6202 3Z" fill="#73270D"/>
</svg>
