<svg width="24" height="24" viewBox="0 0 24 24" fill="none" xmlns="http://www.w3.org/2000/svg">
<mask id="path-1-inside-1_2060_14329" fill="white">
<path d="M16.5 3H7.5C5.016 3 3 5.016 3 7.5V16.5C3 18.984 5.016 21 7.5 21H16.5C18.984 21 21 18.984 21 16.5V7.5C21 5.016 18.984 3 16.5 3ZM12 16.5C9.516 16.5 7.5 14.484 7.5 12C7.5 9.516 9.516 7.5 12 7.5C14.484 7.5 16.5 9.516 16.5 12C16.5 14.484 14.484 16.5 12 16.5ZM16.815 8.058C16.32 8.058 15.915 7.653 15.915 7.158C15.915 6.663 16.32 6.258 16.815 6.258C17.31 6.258 17.715 6.663 17.715 7.158C17.715 7.653 17.31 8.058 16.815 8.058Z"/>
<path d="M12 14.7C13.4912 14.7 14.7 13.4912 14.7 12C14.7 10.5088 13.4912 9.3 12 9.3C10.5088 9.3 9.3 10.5088 9.3 12C9.3 13.4912 10.5088 14.7 12 14.7Z"/>
</mask>
<path d="M16.5 3H7.5C5.016 3 3 5.016 3 7.5V16.5C3 18.984 5.016 21 7.5 21H16.5C18.984 21 21 18.984 21 16.5V7.5C21 5.016 18.984 3 16.5 3ZM12 16.5C9.516 16.5 7.5 14.484 7.5 12C7.5 9.516 9.516 7.5 12 7.5C14.484 7.5 16.5 9.516 16.5 12C16.5 14.484 14.484 16.5 12 16.5ZM16.815 8.058C16.32 8.058 15.915 7.653 15.915 7.158C15.915 6.663 16.32 6.258 16.815 6.258C17.31 6.258 17.715 6.663 17.715 7.158C17.715 7.653 17.31 8.058 16.815 8.058Z" fill="#73270D"/>
<path d="M12 14.7C13.4912 14.7 14.7 13.4912 14.7 12C14.7 10.5088 13.4912 9.3 12 9.3C10.5088 9.3 9.3 10.5088 9.3 12C9.3 13.4912 10.5088 14.7 12 14.7Z" fill="#73270D"/>
<path d="M16.5 -18.3333H7.5V24.3333H16.5V-18.3333ZM7.5 -18.3333C-6.76608 -18.3333 -18.3333 -6.76608 -18.3333 7.5H24.3333C24.3333 16.7981 16.7981 24.3333 7.5 24.3333V-18.3333ZM-18.3333 7.5V16.5H24.3333V7.5H-18.3333ZM-18.3333 16.5C-18.3333 30.7661 -6.76608 42.3333 7.5 42.3333V-0.333334C16.7981 -0.333334 24.3333 7.20192 24.3333 16.5H-18.3333ZM7.5 42.3333H16.5V-0.333334H7.5V42.3333ZM16.5 42.3333C30.7661 42.3333 42.3333 30.7661 42.3333 16.5H-0.333334C-0.333334 7.20192 7.20192 -0.333334 16.5 -0.333334V42.3333ZM42.3333 16.5V7.5H-0.333334V16.5H42.3333ZM42.3333 7.5C42.3333 -6.76608 30.7661 -18.3333 16.5 -18.3333V24.3333C7.20192 24.3333 -0.333334 16.7981 -0.333334 7.5H42.3333ZM12 -4.83333C21.2981 -4.83333 28.8333 2.70192 28.8333 12H-13.8333C-13.8333 26.2661 -2.26608 37.8333 12 37.8333V-4.83333ZM28.8333 12C28.8333 21.2981 21.2981 28.8333 12 28.8333V-13.8333C-2.26608 -13.8333 -13.8333 -2.26608 -13.8333 12H28.8333ZM12 28.8333C2.70192 28.8333 -4.83333 21.2981 -4.83333 12H37.8333C37.8333 -2.26608 26.2661 -13.8333 12 -13.8333V28.8333ZM-4.83333 12C-4.83333 2.70192 2.70192 -4.83333 12 -4.83333V37.8333C26.2661 37.8333 37.8333 26.2661 37.8333 12H-4.83333ZM16.815 -13.2753C28.1021 -13.2753 37.2483 -4.12908 37.2483 7.158H-5.41833C-5.41833 19.4351 4.53793 29.3913 16.815 29.3913V-13.2753ZM37.2483 7.158C37.2483 18.4451 28.1021 27.5913 16.815 27.5913V-15.0753C4.53793 -15.0753 -5.41833 -5.11907 -5.41833 7.158H37.2483ZM16.815 27.5913C5.52793 27.5913 -3.61833 18.4451 -3.61833 7.158H39.0483C39.0483 -5.11907 29.0921 -15.0753 16.815 -15.0753V27.5913ZM-3.61833 7.158C-3.61833 -4.12908 5.52793 -13.2753 16.815 -13.2753V29.3913C29.0921 29.3913 39.0483 19.4351 39.0483 7.158H-3.61833ZM-6.63333 12C-6.63333 1.70909 1.70909 -6.63333 12 -6.63333V36.0333C25.2732 36.0333 36.0333 25.2732 36.0333 12H-6.63333ZM12 -6.63333C22.2909 -6.63333 30.6333 1.7091 30.6333 12H-12.0333C-12.0333 25.2732 -1.27325 36.0333 12 36.0333V-6.63333ZM30.6333 12C30.6333 22.2909 22.2909 30.6333 12 30.6333V-12.0333C-1.27324 -12.0333 -12.0333 -1.27324 -12.0333 12H30.6333ZM12 30.6333C1.7091 30.6333 -6.63333 22.2909 -6.63333 12H36.0333C36.0333 -1.27325 25.2732 -12.0333 12 -12.0333V30.6333Z" fill="#73270D" mask="url(#path-1-inside-1_2060_14329)"/>
</svg>
