<svg width="655" height="180" viewBox="0 0 655 180" fill="none" xmlns="http://www.w3.org/2000/svg">
<path d="M615.001 180C613.549 180 612.823 179.231 612.823 177.692V165.524C612.823 163.986 613.549 163.217 615.001 163.217H635.99V16.5734H615.001C613.549 16.5734 612.823 15.8042 612.823 14.2657V2.0979C612.823 0.699301 613.549 0 615.001 0H653.02C654.34 0 655 0.699301 655 2.0979V177.692C655 179.231 654.34 180 653.02 180H615.001Z" fill="#F1F1F4"/>
<path d="M2.17817 180C0.726056 180 0 179.231 0 177.692V2.0979C0 0.699301 0.726056 0 2.17817 0H40.1971C41.6492 0 42.3752 0.699301 42.3752 2.0979V14.2657C42.3752 15.8042 41.6492 16.5734 40.1971 16.5734H19.2075V163.217H40.1971C41.6492 163.217 42.3752 163.986 42.3752 165.524V177.692C42.3752 179.231 41.6492 180 40.1971 180H2.17817Z" fill="#F1F1F4"/>
</svg>
