<svg width="115" height="36" viewBox="0 0 115 36" fill="none" xmlns="http://www.w3.org/2000/svg">
<path d="M105.944 31.1117C105.086 31.1117 104.482 30.8832 104.133 30.4264C103.783 29.9391 103.608 29.3452 103.608 28.6447C103.608 26.8782 104.244 24.9898 105.515 22.9797L108.565 18.2284C106.405 19.7513 104.26 21.6548 102.131 23.9391C101.559 24.5482 100.907 25.264 100.176 26.0863C99.4773 26.9086 98.6988 27.8528 97.8408 28.9188C96.6969 30.3503 96.0137 31.066 95.7913 31.066C95.3464 31.066 94.981 30.8833 94.695 30.5178C94.409 30.1218 94.266 29.7716 94.266 29.467C94.266 29.2234 94.3454 28.7817 94.5043 28.1421C94.6632 27.4721 94.8539 26.8934 95.0763 26.4061C95.2987 25.8883 95.5212 25.3858 95.7436 24.8985C95.9978 24.3807 96.2361 23.8782 96.4586 23.3909L93.5987 26.269C93.5351 26.33 93.3445 26.5127 93.0267 26.8173C92.709 27.1218 92.4547 27.2741 92.2641 27.2741C92.1052 27.2741 92.0258 27.1675 92.0258 26.9543C92.0258 26.8934 92.0575 26.8173 92.1211 26.7259C92.1529 26.6041 92.2482 26.467 92.4071 26.3147C92.8837 25.8579 93.3763 25.3706 93.8847 24.8528C94.3931 24.335 94.9174 23.7411 95.4576 23.0711C95.7436 22.736 96.1726 22.2335 96.7445 21.5635C97.3165 20.8629 97.9361 20.1168 98.6035 19.3249C99.3025 18.533 99.9539 17.802 100.558 17.132C100.717 16.9188 100.891 16.7817 101.082 16.7208C101.273 16.6294 101.4 16.5838 101.463 16.5838C102.321 16.5838 102.75 16.9036 102.75 17.5431C102.75 17.7259 102.703 17.9086 102.607 18.0914C99.7474 21.868 98.0315 24.7462 97.4595 26.7259C101.146 23.1929 104.101 20.5431 106.325 18.7767C108.581 16.9797 110.186 16.0812 111.139 16.0812C111.648 16.0812 112.029 16.1574 112.283 16.3096C112.569 16.4619 112.712 16.7513 112.712 17.1777C112.712 17.33 112.696 17.4518 112.664 17.5431C112.569 17.7563 111.918 18.6091 110.71 20.1015C109.979 20.9543 109.328 21.731 108.756 22.4315C108.216 23.132 107.771 23.7411 107.421 24.2589C106.849 25.1117 106.42 25.9188 106.134 26.6802C105.848 27.4112 105.705 28.0355 105.705 28.5533C105.705 28.7665 105.737 29.0254 105.801 29.33C105.864 29.6345 106.055 29.7868 106.373 29.7868C107.104 29.7868 108.248 29.1777 109.805 27.9594C110.535 27.3503 111.219 26.7411 111.854 26.132C112.49 25.4924 113.093 24.868 113.665 24.2589C113.793 24.1371 113.999 23.9086 114.285 23.5736C114.571 23.2081 114.746 23.0254 114.809 23.0254C114.936 23.0254 115 23.1472 115 23.3909C115 23.5127 114.921 23.7259 114.762 24.0305C114.635 24.3046 114.492 24.5178 114.333 24.6701C113.983 25.066 113.459 25.6142 112.76 26.3147C112.092 27.0152 111.33 27.731 110.472 28.4619C109.646 29.1929 108.835 29.8173 108.041 30.335C107.247 30.8528 106.548 31.1117 105.944 31.1117Z" fill="#111111"/>
<path d="M83.9783 31.6142C82.9615 31.6142 82.04 31.3097 81.2138 30.7005C80.3876 30.0609 79.9745 29.2234 79.9745 28.1878C79.9745 26.0254 81.3568 23.5584 84.1213 20.7868C86.9494 17.9848 89.4756 16.5838 91.6999 16.5838C92.4308 16.5838 93.0187 16.7817 93.4635 17.1777C93.9402 17.5431 94.1785 18 94.1785 18.5482C94.1785 20.2538 92.7644 21.9289 89.9364 23.5736C87.426 25.0355 85.3129 25.7665 83.597 25.7665C83.3428 25.7665 83.1203 25.736 82.9297 25.6751C82.453 26.4975 82.2147 27.3655 82.2147 28.2792C82.2147 29.8629 82.9932 30.6548 84.5503 30.6548C86.1391 30.6548 88.1887 29.6345 90.699 27.5939C92.6373 26.1015 94.2897 24.5178 95.6561 22.8426C95.9421 22.4772 96.1963 22.2944 96.4187 22.2944C96.6094 22.2944 96.7047 22.3858 96.7047 22.5685C96.7047 22.7513 96.5776 23.0102 96.3234 23.3452C95.4336 24.4721 94.4804 25.5076 93.4635 26.4518C92.4467 27.3959 91.3504 28.264 90.1747 29.0558C87.7279 30.7614 85.6624 31.6142 83.9783 31.6142ZM84.2643 24.7614C85.4718 24.7614 87.0447 24.1827 88.9831 23.0254C89.6186 22.599 90.2382 22.1269 90.842 21.6091C91.4775 21.0609 91.9859 20.5127 92.3672 19.9645C92.7803 19.4162 92.9869 18.9289 92.9869 18.5025C92.9869 18.1066 92.6532 17.9086 91.9859 17.9086C91.0326 17.9086 89.698 18.5939 87.9821 19.9645C87.1559 20.6345 86.3615 21.3655 85.5989 22.1574C84.8363 22.9492 84.1849 23.7868 83.6447 24.6701C83.8353 24.731 84.0419 24.7614 84.2643 24.7614Z" fill="#111111"/>
<path d="M62.7267 31.1117C61.9641 31.1117 61.5828 30.7005 61.5828 29.8782C61.9323 28.1726 62.6473 26.2538 63.7276 24.1218C64.2361 23.0863 64.7445 22.066 65.2529 21.0609C65.7931 20.0558 66.3174 19.0355 66.8258 18C65.6501 18.7614 64.4744 19.6142 63.2987 20.5584C62.1229 21.4721 60.979 22.5076 59.8668 23.665C58.564 25.0051 57.0546 26.7259 55.3387 28.8274C54.0994 30.3198 53.3845 31.066 53.1938 31.066C52.749 31.066 52.3835 30.868 52.0975 30.4721C51.8116 30.0761 51.6686 29.7411 51.6686 29.467C51.6686 29.0711 52.034 28.0508 52.7648 26.4061C52.9873 25.8883 53.2097 25.3858 53.4321 24.8985C53.6863 24.3807 53.9247 23.8782 54.1471 23.3909L51.2872 26.269C51.2237 26.33 51.033 26.5127 50.7153 26.8173C50.3975 27.1218 50.1433 27.2741 49.9526 27.2741C49.7938 27.2741 49.7143 27.1675 49.7143 26.9543C49.7143 26.8934 49.7461 26.8173 49.8096 26.7259C49.8414 26.6041 49.9368 26.467 50.0956 26.3147C50.5723 25.8579 51.0648 25.3706 51.5732 24.8528C52.0816 24.335 52.606 23.7411 53.1462 23.0711C53.5592 22.5533 54.1471 21.7919 54.9097 20.7868C55.7041 19.7513 56.6733 18.4569 57.8173 16.9036C58.1668 16.4467 58.6593 16.2183 59.2949 16.2183C59.9304 16.2183 60.2481 16.5076 60.2481 17.0863C60.2481 17.2995 59.4379 18.7157 57.8173 21.335C56.9911 22.736 56.3238 23.8782 55.8154 24.7614C55.3387 25.6447 55.0368 26.2995 54.9097 26.7259C55.6088 25.9949 56.435 25.1726 57.3883 24.2589C58.3733 23.3452 59.5014 22.3249 60.7725 21.198C64.6809 17.7259 67.2548 15.9898 68.4941 15.9898C68.8436 15.9898 69.1773 16.0964 69.495 16.3096C69.8446 16.5228 70.0193 16.797 70.0193 17.132C70.0193 17.2843 69.3997 18.3959 68.1604 20.467C66.9529 22.5685 66.2856 23.8173 66.1585 24.2132C69.6857 21.3807 71.4493 19.9492 71.4493 19.9188C74.4362 17.6954 76.5811 16.5838 77.884 16.5838C78.2653 16.5838 78.6148 16.7056 78.9326 16.9492C79.2821 17.1624 79.4569 17.4213 79.4569 17.7259C79.4569 17.7868 78.4401 19.066 76.4064 21.5635C74.3091 24.0914 73.1334 26.1624 72.8792 27.7767C72.7521 28.8731 73.34 29.4213 74.6428 29.4213C75.4372 29.4213 76.5494 28.934 77.9793 27.9594C79.4092 26.9848 80.9027 25.6447 82.4597 23.9391C82.6504 23.7259 82.857 23.5279 83.0794 23.3452C83.3018 23.132 83.4925 23.0254 83.6514 23.0254C83.842 23.0254 83.9373 23.1015 83.9373 23.2538C83.9373 23.467 83.7943 23.7107 83.5084 23.9848C82.6822 24.9289 81.6971 25.9036 80.5532 26.9086C79.441 27.9137 78.3288 28.7665 77.2167 29.467C76.1045 30.1371 75.1194 30.4721 74.2615 30.4721C72.1007 30.4721 71.0203 29.5127 71.0203 27.5939C71.0203 26.9239 71.211 26.1472 71.5923 25.264C71.9736 24.3503 72.3549 23.5279 72.7362 22.797C73.6577 21.0914 74.6587 19.5838 75.7391 18.2741C74.7222 18.7614 73.6577 19.401 72.5456 20.1929C71.4652 20.9848 70.3371 21.9137 69.1614 22.9797C66.4286 25.5381 64.5538 28.1269 63.537 30.7462C63.3781 30.9898 63.108 31.1117 62.7267 31.1117Z" fill="#111111"/>
<path d="M33.4701 31.5228C32.0401 31.5228 31.3252 30.6548 31.3252 28.9188C31.3252 28.2487 31.5317 27.4569 31.9448 26.5431C32.3897 25.599 33.0093 24.6091 33.8037 23.5736C33.8037 23.5736 33.5177 23.8325 32.9458 24.3503C32.3738 24.868 31.7224 25.5228 30.9915 26.3147C30.8644 26.4366 30.7055 26.4975 30.5149 26.4975C30.3878 26.4975 30.3242 26.4213 30.3242 26.269C30.3242 26.1168 30.4672 25.8579 30.7532 25.4924L37.3309 18.0914C38.1571 17.1777 39.0627 16.7208 40.0478 16.7208C40.7786 16.7208 41.144 16.9949 41.144 17.5431C41.144 17.7563 41.0487 17.9543 40.8581 18.1371C40.2543 18.6853 39.5076 19.4619 38.6178 20.467C37.7599 21.4721 36.9178 22.5533 36.0916 23.7107C35.2654 24.868 34.5664 25.9797 33.9944 27.0457C33.4542 28.0812 33.1841 28.9188 33.1841 29.5584C33.1841 30.1066 33.3747 30.3807 33.7561 30.3807C33.9785 30.3807 34.328 30.3046 34.8047 30.1523C35.2813 29.9695 35.9168 29.6193 36.7113 29.1015C37.5057 28.5533 38.459 27.7157 39.5711 26.5888C39.7618 26.4061 40.2702 25.8579 41.0964 24.9442C41.9226 24.0305 43.0347 22.7208 44.4329 21.0152C46.9114 18.0609 48.532 16.5838 49.2947 16.5838C50.3433 16.5838 50.9152 16.9949 51.0106 17.8173C51.0741 18.0914 50.4068 18.9898 49.0087 20.5127C47.1974 22.6142 45.9581 24.1218 45.2908 25.0355C44.0516 26.7716 43.4319 28.1269 43.4319 29.1015C43.4319 29.7716 43.6703 30.1066 44.1469 30.1066C44.6235 30.1066 45.2273 29.8934 45.9581 29.467C46.7208 29.0102 47.5152 28.4467 48.3414 27.7767C49.1675 27.0761 49.962 26.3604 50.7246 25.6294C51.519 24.868 52.2022 24.1675 52.7742 23.5279C52.9648 23.3147 53.1555 23.2081 53.3461 23.2081C53.5368 23.2081 53.6321 23.2995 53.6321 23.4822C53.6321 23.5431 53.6162 23.6345 53.5844 23.7563C53.5527 23.8782 53.4573 24.0152 53.2985 24.1675C52.79 24.7157 52.1386 25.401 51.3442 26.2234C50.5498 27.0152 49.6919 27.8071 48.7703 28.599C47.8488 29.3909 46.9591 30.0457 46.1011 30.5635C45.2432 31.0812 44.5123 31.3401 43.9086 31.3401C43.1777 31.3401 42.5422 31.1574 42.002 30.7919C41.4618 30.3959 41.1917 29.8629 41.1917 29.1929C41.1917 28.5228 41.3029 27.8528 41.5254 27.1827C41.7478 26.4822 41.9226 25.8883 42.0497 25.401C40.5562 27.0761 39.2375 28.3553 38.0935 29.2386C36.9813 30.1218 36.044 30.7157 35.2813 31.0203C34.5187 31.3553 33.9149 31.5228 33.4701 31.5228Z" fill="#111111"/>
<path d="M25.8341 36C24.0546 36 22.2275 35.7411 20.3527 35.2234C18.4779 34.736 16.6984 34.0051 15.0143 33.0305C13.3619 32.0558 11.932 30.8985 10.7245 29.5584C8.18238 31.9949 5.76739 33.2132 3.4795 33.2132C2.30378 33.2132 1.42993 32.8782 0.857959 32.2081C0.285986 31.5685 0 30.731 0 29.6954C0 27.7767 0.76263 25.5228 2.28789 22.934C3.71782 20.4975 4.86177 19.2183 5.71973 19.0964C6.35525 19.0964 7.00666 19.7208 7.67396 20.9695L10.6768 26.5431C12.361 24.3807 14.1245 22.0508 15.9676 19.5533C13.3619 18.4264 12.0591 16.797 12.0591 14.665C12.0591 13.7513 12.2815 12.9137 12.7264 12.1523C13.203 11.3604 13.8068 10.7208 14.5376 10.2335C15.2685 9.74619 16.0152 9.50254 16.7779 9.50254C17.8265 9.50254 18.5891 9.97462 19.0658 10.9188C19.1293 11.0102 19.1293 11.1015 19.0658 11.1929C19.034 11.2843 18.9863 11.3147 18.9228 11.2843C18.7003 11.0406 18.3826 10.8274 17.9695 10.6447C17.5564 10.4619 17.1751 10.3706 16.8255 10.3706C16.1582 10.3706 15.5386 10.6294 14.9666 11.1472C14.4264 11.6345 13.9974 12.2132 13.6797 12.8832C13.3937 13.5533 13.2825 14.1472 13.346 14.665C13.346 16.2183 14.49 17.5736 16.7779 18.731C17.3181 17.9695 17.9059 17.1472 18.5414 16.264C19.177 15.3503 19.8602 14.3756 20.591 13.3401C26.9145 4.4467 32.1735 0 36.3679 0C39.3231 0 40.8007 1.32487 40.8007 3.97462C40.8007 6.38071 39.5773 9.2132 37.1306 12.4721C35.9231 14.0863 34.3978 15.533 32.5548 16.8122C30.7117 18.0914 28.7575 19.1117 26.6921 19.8731C24.6584 20.6041 22.6882 20.9695 20.7817 20.9695C20.3368 20.9695 19.8919 20.9543 19.4471 20.9239C19.034 20.8629 18.6527 20.7716 18.3031 20.6497C17.4769 21.6853 16.5237 22.8426 15.4433 24.1218C14.3629 25.401 13.1713 26.8173 11.8684 28.3706C12.4404 29.132 13.2507 29.8934 14.2993 30.6548C15.3797 31.4162 16.5872 32.0863 17.9218 32.665C19.2564 33.2741 20.5751 33.7614 21.878 34.1269C23.1808 34.4924 24.3565 34.6751 25.4051 34.6751C26.6126 34.6751 27.7248 34.5381 28.7416 34.264C29.7585 34.0203 30.5846 33.6091 31.2202 33.0305C31.8557 32.4822 32.1735 31.7513 32.1735 30.8376C32.1735 30.7157 32.1735 30.5939 32.1735 30.4721C32.1735 30.3503 32.1576 30.2284 32.1258 30.1066C32.1258 30.0457 32.1099 30 32.0781 29.9695C32.0781 29.9391 32.0781 29.9086 32.0781 29.8782C32.0781 29.5736 32.1735 29.4213 32.3641 29.4213C32.6819 29.4213 32.9361 29.665 33.1267 30.1523C33.3174 30.6091 33.4127 30.9746 33.4127 31.2487C33.4127 32.1929 33.0314 33.0152 32.2688 33.7157C31.5062 34.4467 30.537 35.0102 29.3613 35.4061C28.2173 35.802 27.0416 36 25.8341 36ZM20.448 19.7817C22.0686 19.7817 23.8004 19.4315 25.6434 18.731C27.4865 18 29.2183 17.0558 30.8389 15.8985C32.4912 14.7107 33.8258 13.4315 34.8427 12.0609C37.7343 8.19289 39.1801 5.25381 39.1801 3.24365C39.1801 2.39086 38.9259 1.7665 38.4175 1.37056C37.9091 0.974618 37.2894 0.776648 36.5586 0.776648C34.9698 0.776648 32.9996 2.05584 30.6482 4.61421C29.9173 5.43655 28.9482 6.62437 27.7407 8.17767C26.565 9.70051 25.1668 11.5888 23.5462 13.8426C22.9107 14.7259 22.2116 15.6548 21.449 16.6294C20.6863 17.6041 19.8919 18.6091 19.0658 19.6447C19.5106 19.736 19.9714 19.7817 20.448 19.7817ZM3.57483 31.9797C4.17858 31.9797 4.84588 31.7665 5.57673 31.3401C6.33936 30.9442 7.07022 30.4416 7.76929 29.8325C8.46837 29.2234 9.04034 28.6294 9.48521 28.0508C9.04034 27.4416 8.5637 26.7107 8.05528 25.8579C7.54686 25.0051 6.99078 24.0152 6.38703 22.8883C5.65617 21.4264 5.10009 20.7716 4.71877 20.9239C4.1468 21.0152 3.52716 21.9898 2.85986 23.8477C2.19256 25.7056 1.85891 27.4416 1.85891 29.0558C1.85891 31.0051 2.43088 31.9797 3.57483 31.9797Z" fill="#111111"/>
</svg>
