<svg width="24" height="24" viewBox="0 0 24 24" fill="none" xmlns="http://www.w3.org/2000/svg">
<path fill-rule="evenodd" clip-rule="evenodd" d="M14.4844 2.25L15.514 2.25C16.7744 2.24998 17.7943 2.24996 18.5973 2.35521C19.4312 2.46452 20.1435 2.69922 20.7123 3.25378C21.2839 3.81093 21.5282 4.51295 21.6416 5.3349C21.75 6.12146 21.75 7.11892 21.75 8.3446L21.75 15.6554C21.75 16.8811 21.75 17.8785 21.6416 18.6651C21.5282 19.4871 21.2839 20.1891 20.7123 20.7462C20.1435 21.3008 19.4312 21.5355 18.5973 21.6448C17.7942 21.75 16.7744 21.75 15.514 21.75L14.4844 21.75C13.224 21.75 12.2041 21.75 11.4011 21.6448C10.5672 21.5355 9.85491 21.3008 9.28605 20.7462C8.78801 20.2607 8.53691 19.6633 8.40594 18.9682C8.2793 18.2961 8.25557 17.4769 8.25001 16.5043C8.24765 16.0901 8.58151 15.7524 8.99572 15.75C9.40992 15.7476 9.74762 16.0815 9.74999 16.4957C9.75561 17.4806 9.78199 18.1703 9.88 18.6905C9.9737 19.1877 10.1218 19.4661 10.3331 19.6722C10.5755 19.9084 10.9216 20.0691 11.5961 20.1575C12.2902 20.2485 13.2113 20.25 14.5376 20.25H15.4608C16.7871 20.25 17.7082 20.2485 18.4023 20.1575C19.0768 20.0691 19.4229 19.9084 19.6653 19.6722C19.9049 19.4385 20.0662 19.1087 20.1556 18.4602C20.2483 17.7881 20.25 16.8945 20.25 15.6L20.25 8.4C20.25 7.10547 20.2483 6.21195 20.1556 5.53983C20.0662 4.89129 19.9049 4.56151 19.6653 4.32785C19.4229 4.09159 19.0768 3.93089 18.4023 3.84249C17.7082 3.75152 16.7871 3.75 15.4608 3.75L14.5376 3.75C13.2113 3.75 12.2902 3.75152 11.5961 3.84249C10.9216 3.93089 10.5755 4.09159 10.3331 4.32785C10.1218 4.53386 9.9737 4.81229 9.88 5.30954C9.78199 5.82975 9.75561 6.51942 9.74999 7.50428C9.74762 7.91849 9.40992 8.25235 8.99572 8.24999C8.58151 8.24762 8.24765 7.90993 8.25001 7.49572C8.25557 6.52306 8.2793 5.70391 8.40594 5.03179C8.53691 4.33671 8.78801 3.73931 9.28605 3.25378C9.85491 2.69922 10.5672 2.46452 11.4011 2.35521C12.2041 2.24996 13.224 2.24998 14.4844 2.25Z" fill="#111111"/>
<path fill-rule="evenodd" clip-rule="evenodd" d="M15.75 12C15.75 11.5858 15.4142 11.25 15 11.25L4.9099 11.25L6.74111 9.54959C7.04464 9.26774 7.06222 8.79319 6.78036 8.48966C6.49851 8.18613 6.02396 8.16855 5.72043 8.4504L2.48966 11.4504C2.33684 11.5923 2.25 11.7914 2.25 12C2.25 12.2085 2.33684 12.4077 2.48966 12.5496L5.72043 15.5496C6.02396 15.8314 6.49851 15.8139 6.78036 15.5103C7.06222 15.2068 7.04464 14.7323 6.74111 14.4504L4.9099 12.75L15 12.75C15.4142 12.75 15.75 12.4142 15.75 12Z" fill="#111111"/>
</svg>
