<svg width="24" height="24" viewBox="0 0 24 24" fill="none" xmlns="http://www.w3.org/2000/svg">
<path fill-rule="evenodd" clip-rule="evenodd" d="M12 2.75C10.2051 2.75 8.75 4.20507 8.75 6C8.75 7.79493 10.2051 9.25 12 9.25C13.7949 9.25 15.25 7.79493 15.25 6C15.25 4.20507 13.7949 2.75 12 2.75ZM7.25 6C7.25 3.37665 9.37665 1.25 12 1.25C14.6234 1.25 16.75 3.37665 16.75 6C16.75 8.62335 14.6234 10.75 12 10.75C9.37665 10.75 7.25 8.62335 7.25 6Z" fill="#111111"/>
<path fill-rule="evenodd" clip-rule="evenodd" d="M6.71073 14.9717C5.37127 15.7251 4.74989 16.6487 4.74989 17.5C4.74989 18.8078 4.79021 19.544 5.47348 20.1004C5.84401 20.4022 6.46341 20.6967 7.52368 20.9113C8.58063 21.1252 10.0257 21.25 11.9999 21.25C13.9741 21.25 15.4192 21.1252 16.4761 20.9113C17.5364 20.6967 18.1558 20.4022 18.5263 20.1004C19.2096 19.544 19.2499 18.8078 19.2499 17.5C19.2499 16.6487 18.6285 15.7251 17.289 14.9717C15.9731 14.2315 14.1046 13.75 11.9999 13.75C9.89516 13.75 8.02669 14.2315 6.71073 14.9717ZM5.97534 13.6643C7.55481 12.7759 9.68634 12.25 11.9999 12.25C14.3134 12.25 16.445 12.7759 18.0244 13.6643C19.5804 14.5396 20.7499 15.8661 20.7499 17.5C20.7499 17.5337 20.7499 17.5677 20.75 17.602C20.7511 18.7638 20.7525 20.222 19.4735 21.2635C18.844 21.7761 17.9634 22.1406 16.7737 22.3815C15.5806 22.6229 14.0257 22.75 11.9999 22.75C9.97412 22.75 8.41915 22.6229 7.2261 22.3815C6.03637 22.1406 5.15577 21.7761 4.5263 21.2635C3.24728 20.222 3.24869 18.7638 3.24982 17.602C3.24986 17.5677 3.24989 17.5337 3.24989 17.5C3.24989 15.8661 4.41937 14.5396 5.97534 13.6643Z" fill="#111111"/>
<path fill-rule="evenodd" clip-rule="evenodd" d="M17.9895 8.61105C18.788 7.5801 20.2645 7.50811 21.2626 8.28112C22.2606 9.05414 22.5602 10.5017 21.7617 11.5327L18.2841 16.0228C18.2754 16.034 18.2668 16.0451 18.2583 16.056C18.0906 16.2727 17.9654 16.4344 17.8185 16.5795C17.6461 16.7497 17.4542 16.8992 17.2467 17.0254C17.0703 17.1327 16.882 17.216 16.6268 17.3289C16.6141 17.3345 16.6013 17.3402 16.5882 17.346L15.047 18.0283C14.6323 18.2119 14.1672 18.1305 13.834 17.8725C13.5008 17.6144 13.3056 17.1844 13.3797 16.7369L13.6549 15.074C13.6572 15.06 13.6595 15.0461 13.6618 15.0324C13.7073 14.7571 13.7408 14.5539 13.8006 14.3563C13.8708 14.1238 13.9676 13.9007 14.0893 13.6911C14.193 13.5126 14.3183 13.351 14.4861 13.1344C14.4946 13.1235 14.5032 13.1124 14.5119 13.1011L17.9895 8.61105ZM15.1517 16.3416L14.9867 16.2138L15.1347 15.319C15.19 14.985 15.2083 14.8832 15.2364 14.7903C15.2732 14.6685 15.3236 14.5527 15.3863 14.4447C15.4338 14.363 15.4936 14.2833 15.6978 14.0196L18.1622 10.8378C18.3285 11.0464 18.5373 11.2614 18.7979 11.4633C19.0586 11.6652 19.319 11.8135 19.5626 11.9224L17.0982 15.1043C16.894 15.3679 16.8318 15.4458 16.7646 15.5122C16.6757 15.5999 16.5762 15.6776 16.4674 15.7437C16.3845 15.7942 16.2905 15.8374 15.981 15.9744L15.1517 16.3416ZM20.5287 10.6751L20.5758 10.6142C20.802 10.3221 20.7744 9.8003 20.3441 9.46703C19.9138 9.13375 19.4017 9.23747 19.1754 9.52954L19.1283 9.59044C19.2341 9.78684 19.4156 10.0444 19.7164 10.2774C20.0173 10.5104 20.312 10.6217 20.5287 10.6751Z" fill="#111111"/>
</svg>
