<svg width="24" height="24" viewBox="0 0 24 24" fill="none" xmlns="http://www.w3.org/2000/svg">
<path fill-rule="evenodd" clip-rule="evenodd" d="M11.9996 2.75C10.757 2.75 9.74963 3.75736 9.74963 5V5.25988C10.3067 5.24999 10.918 5.24999 11.5888 5.25H12.4105C13.0813 5.24999 13.6926 5.24999 14.2496 5.25988V5C14.2496 3.75736 13.2423 2.75 11.9996 2.75ZM15.7496 5.32793V5C15.7496 2.92893 14.0707 1.25 11.9996 1.25C9.92856 1.25 8.24963 2.92893 8.24963 5V5.32793C8.1069 5.34021 7.96898 5.35444 7.8357 5.3709C6.82573 5.49569 5.99311 5.75783 5.28581 6.34483C4.57852 6.93183 4.16743 7.70189 3.85865 8.67156C3.55942 9.61128 3.33291 10.8194 3.04817 12.3381L3.02749 12.4484C2.62569 14.5912 2.30905 16.2799 2.25094 17.6112C2.19138 18.9758 2.39439 20.106 3.16417 21.0335C3.93394 21.961 5.00736 22.3689 6.35956 22.5618C7.67877 22.75 9.39688 22.75 11.577 22.75H12.4222C14.6023 22.75 16.3205 22.75 17.6397 22.5618C18.9919 22.3689 20.0653 21.961 20.8351 21.0335C21.6049 20.106 21.8079 18.9758 21.7483 17.6112C21.6902 16.2799 21.3736 14.5912 20.9718 12.4484L20.9511 12.3381C20.6664 10.8194 20.4398 9.61129 20.1406 8.67156C19.8318 7.70189 19.4207 6.93183 18.7134 6.34483C18.0062 5.75783 17.1735 5.49569 16.1636 5.3709C16.0303 5.35444 15.8924 5.34021 15.7496 5.32793ZM8.01963 6.85959C7.16409 6.96529 6.64737 7.16413 6.24377 7.49909C5.84016 7.83406 5.5495 8.30528 5.28794 9.12669C5.02008 9.96788 4.80933 11.0846 4.51322 12.6639C4.09749 14.8811 3.80241 16.4647 3.74951 17.6766C3.69752 18.8679 3.88858 19.5576 4.31843 20.0756C4.74828 20.5935 5.39102 20.9084 6.57144 21.0768C7.77235 21.2482 9.38322 21.25 11.639 21.25H12.3602C14.616 21.25 16.2269 21.2482 17.4278 21.0768C18.6082 20.9084 19.251 20.5935 19.6808 20.0756C20.1107 19.5576 20.3017 18.8679 20.2497 17.6766C20.1968 16.4647 19.9018 14.8811 19.486 12.6639C19.1899 11.0846 18.9792 9.96788 18.7113 9.12669C18.4498 8.30528 18.1591 7.83406 17.7555 7.49909C17.3519 7.16413 16.8352 6.96529 15.9796 6.85959C15.1035 6.75133 13.967 6.75 12.3602 6.75H11.639C10.0322 6.75 8.89578 6.75133 8.01963 6.85959Z" fill="#2E2E2E"/>
<path fill-rule="evenodd" clip-rule="evenodd" d="M12 12.4276C11.9535 12.5082 11.9018 12.6009 11.8409 12.7102L11.7622 12.8513C11.7567 12.8613 11.7507 12.8721 11.7443 12.8838C11.6815 12.9987 11.5775 13.1889 11.4041 13.3206C11.227 13.4551 11.014 13.5013 10.8894 13.5284C10.8769 13.5311 10.8654 13.5336 10.8548 13.536L10.7021 13.5706C10.562 13.6023 10.4478 13.6281 10.3502 13.6527C10.4137 13.7308 10.4962 13.8279 10.6034 13.9533L10.7075 14.0751C10.7149 14.0837 10.7229 14.093 10.7315 14.1028C10.8178 14.2023 10.9572 14.3629 11.0217 14.5702C11.0854 14.7751 11.0634 14.9861 11.0495 15.1192C11.0482 15.1325 11.0469 15.145 11.0457 15.1566L11.03 15.3191C11.0154 15.4697 11.0041 15.5899 10.9965 15.6876C11.0799 15.6509 11.1747 15.6073 11.2873 15.5554L11.4303 15.4896C11.4401 15.485 11.4509 15.4799 11.4626 15.4744C11.5774 15.4203 11.7771 15.3261 12 15.3261C12.2229 15.3261 12.4226 15.4203 12.5374 15.4744C12.5491 15.4799 12.5599 15.485 12.5697 15.4896L12.7127 15.5554C12.8253 15.6073 12.9201 15.6509 13.0035 15.6876C12.9959 15.5899 12.9846 15.4697 12.97 15.3191L12.9543 15.1566C12.9531 15.145 12.9518 15.1325 12.9505 15.1192C12.9366 14.9861 12.9146 14.7751 12.9783 14.5702C13.0428 14.3629 13.1822 14.2023 13.2685 14.1028C13.2771 14.093 13.2851 14.0837 13.2925 14.0751L13.3966 13.9533C13.5038 13.8279 13.5863 13.7308 13.6498 13.6527C13.5522 13.6281 13.438 13.6023 13.2979 13.5706L13.1452 13.536C13.1346 13.5336 13.1231 13.5311 13.1106 13.5284C12.986 13.5013 12.773 13.4551 12.5959 13.3206C12.4225 13.1889 12.3185 12.9987 12.2557 12.8838C12.2493 12.8721 12.2433 12.8613 12.2378 12.8513L12.1591 12.7102C12.0982 12.6009 12.0465 12.5082 12 12.4276ZM11.2109 11.4397C11.3486 11.2599 11.5987 11 12 11C12.4013 11 12.6514 11.2599 12.7891 11.4397C12.9205 11.6114 13.0529 11.849 13.1886 12.0926C13.1948 12.1037 13.201 12.1148 13.2071 12.1259L13.2858 12.267C13.304 12.2997 13.3184 12.3255 13.3309 12.3475C13.3528 12.3526 13.3782 12.3584 13.41 12.3656L13.5627 12.4001C13.5752 12.403 13.5877 12.4058 13.6002 12.4086C13.8624 12.4679 14.123 12.5268 14.3231 12.6056C14.544 12.6927 14.8434 12.8622 14.9587 13.2334C15.0721 13.5979 14.9291 13.9068 14.8041 14.1053C14.6885 14.289 14.5128 14.4944 14.3329 14.7047C14.3247 14.7142 14.3166 14.7237 14.3085 14.7332L14.2044 14.855C14.1768 14.8873 14.156 14.9116 14.1385 14.9326C14.1409 14.9617 14.1441 14.9956 14.1485 15.0409L14.1642 15.2033C14.1654 15.2157 14.1667 15.2281 14.1679 15.2404C14.1952 15.522 14.2216 15.7941 14.2119 16.0117C14.2017 16.2399 14.147 16.5854 13.8373 16.8205C13.5178 17.0631 13.165 17.0102 12.9412 16.9461C12.7351 16.887 12.4915 16.7748 12.2461 16.6617C12.2344 16.6563 12.2226 16.6509 12.2109 16.6455L12.0679 16.5796C12.0411 16.5673 12.0192 16.5572 12 16.5485C11.9808 16.5572 11.9589 16.5673 11.9321 16.5796L11.7891 16.6454C11.7774 16.6509 11.7656 16.6563 11.7539 16.6617C11.5085 16.7748 11.2649 16.887 11.0588 16.9461C10.835 17.0102 10.4822 17.0631 10.1627 16.8205C9.85301 16.5854 9.79825 16.2399 9.78809 16.0117C9.77839 15.7941 9.80481 15.522 9.83215 15.2404C9.83335 15.2281 9.83455 15.2157 9.83575 15.2033L9.85149 15.0409C9.85588 14.9956 9.85914 14.9617 9.86153 14.9326C9.84402 14.9116 9.82323 14.8873 9.79565 14.855L9.69154 14.7332C9.6834 14.7237 9.67526 14.7142 9.66713 14.7047C9.48722 14.4944 9.3115 14.289 9.19587 14.1053C9.07094 13.9068 8.92789 13.5979 9.04125 13.2334C9.15665 12.8622 9.45605 12.6927 9.67693 12.6056C9.87697 12.5268 10.1376 12.4679 10.3998 12.4086C10.4123 12.4058 10.4248 12.403 10.4373 12.4001L10.59 12.3656C10.6218 12.3584 10.6472 12.3526 10.6691 12.3475C10.6816 12.3255 10.696 12.2997 10.7142 12.267L10.7929 12.1259C10.799 12.1148 10.8052 12.1037 10.8114 12.0927C10.9471 11.849 11.0795 11.6114 11.2109 11.4397Z" fill="#2E2E2E"/>
</svg>
