<svg width="20" height="20" viewBox="0 0 20 20" fill="none" xmlns="http://www.w3.org/2000/svg">
<path d="M7.2093 14.8837C6.82399 14.8837 6.51163 15.1961 6.51163 15.5814C6.51163 15.9667 6.82399 16.2791 7.2093 16.2791H12.7907C13.176 16.2791 13.4884 15.9667 13.4884 15.5814C13.4884 15.1961 13.176 14.8837 12.7907 14.8837H7.2093Z" fill="#111111"/>
<path fill-rule="evenodd" clip-rule="evenodd" d="M10 0C9.34129 0 8.74282 0.188669 8.09354 0.504409C7.4659 0.809624 6.74086 1.25962 5.83522 1.8217L3.91282 3.01479C3.05589 3.54661 2.36971 3.97247 1.84084 4.3775C1.29316 4.79692 0.87251 5.22409 0.568661 5.77919C0.265446 6.33314 0.1289 6.92255 0.0634325 7.61926C-1.32695e-05 8.29446 -7.22861e-06 9.12011 2.48566e-07 10.1556V11.6557C-1.27732e-05 13.4267 -2.30223e-05 14.8247 0.14205 15.9178C0.287788 17.039 0.594012 17.9443 1.28591 18.6599C1.98101 19.3789 2.86554 19.7002 3.96056 19.8524C5.02185 20 6.37727 20 8.08544 20H11.9145C13.6227 20 14.9782 20 16.0394 19.8524C17.1345 19.7002 18.019 19.3789 18.7141 18.6599C19.406 17.9443 19.7122 17.039 19.858 15.9178C20 14.8247 20 13.4267 20 11.6557V10.1555C20 9.12013 20 8.29444 19.9366 7.61926C19.8711 6.92255 19.7346 6.33314 19.4313 5.77919C19.1275 5.22409 18.7068 4.79692 18.1592 4.3775C17.6303 3.97247 16.9441 3.54662 16.0872 3.0148L14.1648 1.82169C13.2591 1.25962 12.5341 0.809621 11.9065 0.504409C11.2572 0.188669 10.6587 0 10 0ZM6.53909 3.02709C7.48399 2.44066 8.14837 2.02933 8.70376 1.75925C9.24486 1.49612 9.62808 1.39535 10 1.39535C10.3719 1.39535 10.7551 1.49612 11.2962 1.75925C11.8516 2.02933 12.516 2.44066 13.4609 3.02709L15.3214 4.18174C16.2152 4.73646 16.8427 5.12684 17.3108 5.4853C17.7662 5.83409 18.0282 6.12191 18.2074 6.44916C18.3871 6.77758 18.4921 7.16154 18.5473 7.7498C18.6039 8.35218 18.6047 9.11239 18.6047 10.1897V11.6046C18.6047 13.4381 18.6033 14.7453 18.4742 15.7379C18.3475 16.7129 18.1088 17.2785 17.7109 17.6901C17.3162 18.0984 16.7787 18.3408 15.8472 18.4704C14.8932 18.6031 13.6349 18.6047 11.8605 18.6047H8.13953C6.36509 18.6047 5.10682 18.6031 4.15276 18.4704C3.22126 18.3408 2.68385 18.0984 2.28911 17.6901C1.89117 17.2785 1.65248 16.7129 1.52576 15.7379C1.39674 14.7453 1.39535 13.4381 1.39535 11.6046V10.1897C1.39535 9.11239 1.39606 8.35217 1.45266 7.7498C1.50794 7.16154 1.61288 6.77758 1.79264 6.44916C1.97177 6.12191 2.23379 5.83409 2.68923 5.4853C3.1573 5.12684 3.78483 4.73646 4.67863 4.18174L6.53909 3.02709Z" fill="#111111"/>
</svg>
