<svg width="12" height="16" viewBox="0 0 12 16" fill="none" xmlns="http://www.w3.org/2000/svg">
<path fill-rule="evenodd" clip-rule="evenodd" d="M5.96271 0.833008H6.03794C7.26311 0.832997 8.23353 0.832989 8.99301 0.935098C9.77462 1.04018 10.4073 1.26159 10.9062 1.7605C11.4051 2.25941 11.6265 2.89205 11.7316 3.67366C11.8337 4.43314 11.8337 5.40356 11.8337 6.62873V9.37062C11.8337 10.5958 11.8337 11.5662 11.7316 12.3257C11.6265 13.1073 11.4051 13.7399 10.9062 14.2388C10.4073 14.7378 9.77462 14.9592 8.99301 15.0643C8.23353 15.1664 7.26311 15.1664 6.03793 15.1663H5.96272C4.73754 15.1664 3.76712 15.1664 3.00764 15.0643C2.22603 14.9592 1.5934 14.7378 1.09449 14.2388C0.595579 13.7399 0.374168 13.1073 0.269082 12.3257C0.166973 11.5662 0.166982 10.5958 0.166992 9.37062V6.62873C0.166982 5.40356 0.166973 4.43314 0.269082 3.67366C0.374168 2.89204 0.595579 2.25941 1.09449 1.7605C1.5934 1.26159 2.22603 1.04018 3.00764 0.935098C3.76712 0.832989 4.73754 0.832997 5.96271 0.833008ZM3.14089 1.92618C2.47017 2.01636 2.08373 2.18547 1.80159 2.46761C1.51945 2.74975 1.35034 3.13618 1.26017 3.80691C1.16805 4.49202 1.16699 5.39513 1.16699 6.66634V9.33301C1.16699 10.6042 1.16805 11.5073 1.26017 12.1924C1.35034 12.8632 1.51945 13.2496 1.80159 13.5317C2.08373 13.8139 2.47017 13.983 3.14089 14.0732C3.826 14.1653 4.72911 14.1663 6.00033 14.1663C7.27154 14.1663 8.17465 14.1653 8.85976 14.0732C9.53049 13.983 9.91692 13.8139 10.1991 13.5317C10.4812 13.2496 10.6503 12.8632 10.7405 12.1924C10.8326 11.5073 10.8337 10.6042 10.8337 9.33301V6.66634C10.8337 5.39513 10.8326 4.49202 10.7405 3.80691C10.6503 3.13618 10.4812 2.74975 10.1991 2.46761C9.91692 2.18547 9.53049 2.01636 8.85976 1.92618C8.17465 1.83407 7.27154 1.83301 6.00033 1.83301C4.72911 1.83301 3.826 1.83407 3.14089 1.92618ZM3.50033 12.6663C3.50033 12.3902 3.72418 12.1663 4.00033 12.1663H8.00033C8.27647 12.1663 8.50033 12.3902 8.50033 12.6663C8.50033 12.9425 8.27647 13.1663 8.00033 13.1663H4.00033C3.72418 13.1663 3.50033 12.9425 3.50033 12.6663Z" fill="#111111"/>
</svg>
