<svg width="24" height="24" viewBox="0 0 24 24" fill="none" xmlns="http://www.w3.org/2000/svg">
<path fill-rule="evenodd" clip-rule="evenodd" d="M7.54589 6.93558C8.02807 6.87336 8.46395 6.87341 8.90815 6.9978C9.35231 7.12218 9.72188 7.34765 10.0969 7.64986C10.4557 7.93902 10.8532 8.32713 11.3397 8.8021L11.344 8.8063L13.7073 11.024C14.0087 11.3183 14.4479 11.7216 14.9122 12.148C15.1049 12.3249 15.3019 12.5059 15.4953 12.6847C16.1471 13.2874 16.7659 13.8739 17.0057 14.1807C17.4897 14.8001 17.7989 15.4158 17.7989 16.1442C17.7989 16.8727 17.4897 17.4884 17.0057 18.1078C16.5394 18.7045 15.8545 19.3733 15.0041 20.2035L14.9351 20.2709C14.0848 21.1011 13.3999 21.7699 12.7887 22.2252C12.1544 22.6977 11.5234 23 10.7764 23C10.0294 23 9.39829 22.6977 8.76398 22.2252C8.15334 21.7703 5.05821 19.0434 4.19849 18.2039L2.95315 16.988C2.46666 16.513 2.06916 16.1249 1.773 15.7745C1.46348 15.4084 1.23273 15.0477 1.10546 14.6144C0.978205 14.1812 0.978123 13.756 1.04181 13.2855C1.10276 12.8352 1.22915 12.3004 1.38386 11.6459L1.58404 10.7989C1.71283 10.254 1.82061 9.79793 1.94942 9.43147C2.08567 9.04386 2.26197 8.70471 2.55766 8.416C2.8534 8.12724 3.20093 7.95499 3.59817 7.82187C3.97363 7.69606 4.44082 7.5908 4.99887 7.46507L5.86651 7.26957C6.53679 7.11853 7.08457 6.9951 7.54589 6.93558ZM8.54746 8.22205C8.33587 8.1628 8.0956 8.1495 7.71732 8.19831C7.32523 8.24891 6.83814 8.35797 6.12957 8.51762L5.32624 8.69863C4.72699 8.83365 4.32639 8.92474 4.02287 9.02645C3.73382 9.12331 3.58773 9.21297 3.4822 9.316C3.37662 9.41909 3.28467 9.56191 3.18538 9.8444C3.08116 10.1409 2.98784 10.5322 2.84956 11.1172L2.66418 11.9016C2.50068 12.5934 2.38894 13.0691 2.3371 13.4521C2.28708 13.8217 2.30067 14.0567 2.36149 14.2638C2.4223 14.4708 2.53831 14.6771 2.78127 14.9645C3.03289 15.2622 3.38549 15.6074 3.89904 16.1089L6.21911 18.2843C7.10516 19.1495 9.02085 20.8135 9.55724 21.2131C10.0754 21.5991 10.4305 21.7262 10.7764 21.7262C11.1222 21.7262 11.4773 21.5991 11.9955 21.2131C12.5287 20.8158 13.1526 20.2086 14.0451 19.3372C14.9376 18.4657 15.5595 17.8566 15.9664 17.3359C16.3618 16.83 16.4923 16.4828 16.4923 16.1442C16.4923 15.8056 16.3618 15.4585 15.9664 14.9526C15.769 14.7 15.198 14.1605 14.5498 13.5631C14.3867 13.4128 14.2194 13.2594 14.0532 13.1071C13.5672 12.6615 13.0908 12.2247 12.7577 11.8996L10.4377 9.72414C9.92348 9.2221 9.5696 8.87748 9.26452 8.63164C8.97013 8.39441 8.75908 8.28131 8.54746 8.22205ZM4.58754 10.5716C5.3536 9.82367 6.59604 9.82367 7.3621 10.5716C8.12762 11.3191 8.12762 12.5305 7.3621 13.278C6.59604 14.026 5.3536 14.026 4.58754 13.278C3.82202 12.5305 3.82202 11.3191 4.58754 10.5716ZM6.43756 11.4716C6.18188 11.222 5.76776 11.222 5.51208 11.4716C5.25586 11.7218 5.25586 12.1278 5.51208 12.378C5.76776 12.6276 6.18188 12.6276 6.43756 12.378C6.69378 12.1278 6.69378 11.7218 6.43756 11.4716ZM14.4076 15.2205C14.6628 14.9713 15.077 14.9713 15.3322 15.2205C15.5868 15.4691 15.5868 15.8718 15.3322 16.1205L10.7673 20.5777C10.5121 20.8269 10.098 20.8269 9.84278 20.5777C9.58813 20.3291 9.58812 19.9264 9.84276 19.6777L14.4076 15.2205Z" fill="#2E2E2E"/>
<path fill-rule="evenodd" clip-rule="evenodd" d="M18.9326 13.6316C19.3819 13.6316 19.7461 13.2781 19.7461 12.8421V3.69543L21.6113 5.50561C21.929 5.81392 22.4441 5.81392 22.7617 5.50561C23.0794 5.1973 23.0794 4.69744 22.7617 4.38913L19.5078 1.23123C19.1901 0.922923 18.6751 0.922923 18.3574 1.23123L15.1035 4.38913C14.7858 4.69744 14.7858 5.1973 15.1035 5.50561C15.4212 5.81392 15.9362 5.81392 16.2539 5.50561L18.1191 3.69543V12.8421C18.1191 13.2781 18.4833 13.6316 18.9326 13.6316Z" fill="#2E2E2E"/>
</svg>
