<svg width="24" height="24" viewBox="0 0 24 24" fill="none" xmlns="http://www.w3.org/2000/svg">
<path fill-rule="evenodd" clip-rule="evenodd" d="M18.8931 1C19.3467 1 19.7145 1.35346 19.7145 1.78947V10.9361L21.5978 9.12597C21.9186 8.81766 22.4386 8.81766 22.7594 9.12597C23.0802 9.43428 23.0802 9.93414 22.7594 10.2425L19.4739 13.4003C19.1531 13.7087 18.633 13.7087 18.3123 13.4003L15.0267 10.2425C14.7059 9.93414 14.7059 9.43428 15.0267 9.12597C15.3475 8.81766 15.8676 8.81766 16.1883 9.12597L18.0717 10.9361V1.78947C18.0717 1.35346 18.4394 1 18.8931 1Z" fill="#2E2E2E"/>
<path fill-rule="evenodd" clip-rule="evenodd" d="M7.60952 6.93559C8.09639 6.87337 8.53651 6.87342 8.98502 6.99781C9.4335 7.12219 9.80666 7.34766 10.1853 7.64987C10.5477 7.93903 10.949 8.32714 11.4402 8.80211L11.4445 8.80631L13.8308 11.024C14.1352 11.3183 14.5786 11.7216 15.0474 12.148C15.242 12.325 15.441 12.5059 15.6362 12.6847C16.2943 13.2874 16.9192 13.8739 17.1613 14.1807C17.65 14.8001 17.9622 15.4158 17.9622 16.1443C17.9622 16.8727 17.65 17.4884 17.1613 18.1078C16.6905 18.7045 15.9989 19.3733 15.1403 20.2035L15.0706 20.2709C14.212 21.1011 13.5204 21.7699 12.9033 22.2252C12.2629 22.6977 11.6256 23 10.8714 23C10.1171 23 9.47993 22.6977 8.83945 22.2252C8.22288 21.7703 5.09766 19.0434 4.22958 18.204L2.97213 16.988C2.48092 16.513 2.07955 16.1249 1.78052 15.7746C1.46799 15.4084 1.23499 15.0477 1.10649 14.6145C0.977993 14.1812 0.97791 13.7561 1.04222 13.2855C1.10376 12.8352 1.23138 12.3005 1.3876 11.6459L1.58971 10.799C1.71976 10.254 1.82859 9.79795 1.95865 9.43148C2.09622 9.04387 2.27424 8.70472 2.5728 8.41602C2.87142 8.12725 3.22233 7.955 3.62343 7.82188C4.00253 7.69607 4.47427 7.59081 5.03774 7.46508L5.91382 7.26958C6.59061 7.11855 7.14372 6.99511 7.60952 6.93559ZM8.62083 8.22206C8.40718 8.16281 8.16458 8.14951 7.78262 8.19833C7.38672 8.24892 6.89489 8.35798 6.17944 8.51763L5.3683 8.69864C4.76322 8.83366 4.35873 8.92475 4.05226 9.02646C3.7604 9.12332 3.61288 9.21298 3.50633 9.31602C3.39972 9.4191 3.30688 9.56193 3.20662 9.84441C3.10139 10.1409 3.00716 10.5322 2.86754 11.1172L2.68035 11.9016C2.51526 12.5934 2.40244 13.0691 2.3501 13.4521C2.29959 13.8217 2.31331 14.0567 2.37473 14.2638C2.43613 14.4708 2.55326 14.6771 2.79858 14.9645C3.05265 15.2622 3.40868 15.6074 3.92722 16.1089L6.26985 18.2843C7.16451 19.1495 9.09882 20.8135 9.64043 21.2131C10.1637 21.5991 10.5222 21.7263 10.8714 21.7263C11.2206 21.7263 11.5791 21.5991 12.1024 21.2131C12.6408 20.8158 13.2707 20.2086 14.1719 19.3372C15.0731 18.4658 15.701 17.8566 16.1119 17.3359C16.5111 16.83 16.643 16.4829 16.643 16.1443C16.643 15.8057 16.5111 15.4585 16.1119 14.9526C15.9126 14.7 15.3361 14.1605 14.6815 13.5631C14.5168 13.4128 14.3479 13.2594 14.1801 13.1071C13.6893 12.6615 13.2083 12.2247 12.872 11.8996L10.5294 9.72415C10.0102 9.22211 9.6529 8.87749 9.34486 8.63165C9.04761 8.39442 8.83451 8.28132 8.62083 8.22206ZM4.62241 10.5717C5.39592 9.82368 6.65044 9.82368 7.42395 10.5717C8.19691 11.3191 8.19691 12.5306 7.42395 13.278C6.65044 14.026 5.39592 14.026 4.62241 13.278C3.84945 12.5306 3.84945 11.3191 4.62241 10.5717ZM6.49042 11.4717C6.23225 11.222 5.8141 11.222 5.55594 11.4717C5.29723 11.7218 5.29723 12.1278 5.55594 12.378C5.8141 12.6276 6.23225 12.6276 6.49042 12.378C6.74913 12.1278 6.74913 11.7218 6.49042 11.4717ZM14.5379 15.2205C14.7956 14.9713 15.2138 14.9713 15.4715 15.2205C15.7286 15.4691 15.7286 15.8719 15.4715 16.1205L10.8623 20.5777C10.6046 20.8269 10.1864 20.8269 9.92874 20.5777C9.67161 20.3291 9.67161 19.9264 9.92873 19.6777L14.5379 15.2205Z" fill="#2E2E2E"/>
</svg>
