<svg width="24" height="24" viewBox="0 0 24 24" fill="none" xmlns="http://www.w3.org/2000/svg">
<path fill-rule="evenodd" clip-rule="evenodd" d="M12 2.03488C8.43687 2.03488 5.54839 4.89816 5.54839 8.4302C5.54839 11.9622 8.43687 14.8255 12 14.8255C15.5631 14.8255 18.4516 11.9622 18.4516 8.4302C18.4516 4.89816 15.5631 2.03488 12 2.03488ZM4 8.4302C4 4.05047 7.58172 0.5 12 0.5C16.4183 0.5 20 4.05047 20 8.4302C20 10.7073 19.0318 12.7603 17.4811 14.2067C17.508 14.2565 17.5298 14.31 17.5455 14.3668L18.216 16.7911C18.5292 17.9235 18.7815 18.8356 18.8962 19.5434C19.0087 20.2371 19.0317 20.9518 18.6401 21.5327C18.4171 21.8635 18.1143 22.1343 17.7565 22.3149C17.1064 22.643 16.3974 22.4812 15.7622 22.2436C15.1143 22.0011 14.3007 21.5809 13.3014 21.0647L13.2533 21.0398C12.5057 20.6537 12.3105 20.567 12.1229 20.5472C12.0412 20.5386 11.9588 20.5386 11.8771 20.5472C11.6895 20.567 11.4943 20.6537 10.7467 21.0398L10.6986 21.0647C9.69933 21.5809 8.88571 22.0011 8.23783 22.2436C7.60265 22.4812 6.89362 22.643 6.24352 22.3149C5.88567 22.1343 5.58288 21.8635 5.3599 21.5327C4.96826 20.9518 4.99129 20.2371 5.10375 19.5434C5.21851 18.8356 5.47079 17.9235 5.78402 16.791L6.45451 14.3668C6.47021 14.31 6.49196 14.2565 6.51887 14.2067C4.96823 12.7603 4 10.7073 4 8.4302ZM7.82984 15.1991L7.29037 17.1496C6.96104 18.3404 6.7323 19.1716 6.63253 19.787C6.52888 20.4263 6.60614 20.6189 6.64726 20.6799C6.72763 20.7991 6.83176 20.8894 6.94609 20.9471C6.96967 20.959 7.11757 21.0222 7.69098 20.8076C8.24131 20.6017 8.97223 20.2256 10.0312 19.6786C10.0672 19.66 10.1028 19.6416 10.138 19.6234C10.7244 19.3198 11.196 19.0756 11.713 19.021C11.9038 19.0008 12.0962 19.0008 12.287 19.021C12.804 19.0756 13.2756 19.3198 13.862 19.6234C13.8972 19.6416 13.9328 19.66 13.9688 19.6786C15.0278 20.2256 15.7587 20.6017 16.309 20.8076C16.8824 21.0222 17.0303 20.959 17.0539 20.9471C17.1682 20.8894 17.2724 20.7991 17.3527 20.6799C17.3939 20.6189 17.4711 20.4263 17.3675 19.787C17.2677 19.1716 17.039 18.3404 16.7096 17.1496L16.1702 15.1991C14.9558 15.9358 13.5279 16.3604 12 16.3604C10.4721 16.3604 9.04415 15.9358 7.82984 15.1991ZM12 6.41899C11.94 6.52197 11.8733 6.64056 11.7946 6.7804L11.6931 6.96086C11.686 6.9736 11.6783 6.98751 11.6701 7.00241C11.589 7.14936 11.4548 7.39272 11.2309 7.56117C11.0024 7.73313 10.7275 7.79229 10.5668 7.82689C10.5507 7.83036 10.5357 7.83357 10.5221 7.83664L10.325 7.88083C10.1442 7.92139 9.99691 7.95448 9.87097 7.98586C9.95289 8.08582 10.0593 8.20994 10.1977 8.37038L10.3321 8.5261C10.3416 8.53715 10.352 8.54899 10.363 8.56159C10.4744 8.68881 10.6543 8.8942 10.7375 9.15938C10.8197 9.42141 10.7913 9.69128 10.7734 9.86154C10.7717 9.87853 10.77 9.89452 10.7685 9.90942L10.7482 10.1172C10.7294 10.3098 10.7147 10.4636 10.705 10.5886C10.8125 10.5417 10.9349 10.4858 11.0803 10.4195L11.2648 10.3353C11.2775 10.3295 11.2914 10.323 11.3065 10.3159C11.4546 10.2467 11.7123 10.1262 12 10.1262C12.2877 10.1262 12.5454 10.2467 12.6935 10.3159C12.7086 10.323 12.7225 10.3295 12.7352 10.3353L12.9197 10.4195C13.0651 10.4858 13.1874 10.5417 13.295 10.5886C13.2853 10.4636 13.2706 10.3098 13.2518 10.1172L13.2315 9.90942C13.23 9.89452 13.2283 9.87853 13.2266 9.86155C13.2087 9.69129 13.1803 9.42142 13.2625 9.15938C13.3457 8.8942 13.5256 8.68881 13.637 8.56159C13.648 8.54899 13.6584 8.53715 13.6679 8.5261L13.8023 8.37037C13.9407 8.20993 14.0471 8.08582 14.129 7.98586C14.0031 7.95448 13.8558 7.92139 13.675 7.88083L13.4779 7.83664C13.4643 7.83357 13.4493 7.83036 13.4332 7.82689C13.2725 7.79229 12.9976 7.73313 12.7691 7.56117C12.5452 7.39272 12.411 7.14937 12.3299 7.00241C12.3217 6.98751 12.314 6.9736 12.3069 6.96086L12.2054 6.7804C12.1267 6.64056 12.06 6.52197 12 6.41899ZM10.9817 5.15542C11.1594 4.92537 11.4821 4.59301 12 4.59301C12.5179 4.59301 12.8406 4.92537 13.0183 5.15542C13.188 5.37499 13.3588 5.67892 13.5339 5.99053C13.5419 6.00469 13.5498 6.01887 13.5578 6.03306L13.6593 6.21352C13.6828 6.25537 13.7014 6.2883 13.7176 6.31646C13.7458 6.32303 13.7786 6.3304 13.8196 6.3396L14.0167 6.3838C14.0328 6.38742 14.0489 6.39103 14.0651 6.39465C14.4035 6.47044 14.7398 6.54577 14.9979 6.64662C15.283 6.75797 15.6694 6.97483 15.8183 7.44953C15.9646 7.91585 15.78 8.31085 15.6187 8.56472C15.4695 8.79968 15.2427 9.06242 15.0106 9.33142C15.0001 9.34358 14.9896 9.35575 14.9791 9.36793L14.8447 9.52366C14.8091 9.56492 14.7823 9.59604 14.7597 9.62297C14.7628 9.66014 14.767 9.70346 14.7727 9.76138L14.793 9.96915C14.7945 9.985 14.7961 10.0008 14.7976 10.0166C14.8329 10.3767 14.867 10.7248 14.8545 11.0031C14.8414 11.295 14.7707 11.7369 14.371 12.0376C13.9587 12.3479 13.5034 12.2802 13.2147 12.1982C12.9486 12.1227 12.6342 11.9791 12.3176 11.8345C12.3025 11.8275 12.2873 11.8206 12.2721 11.8137L12.0876 11.7295C12.0531 11.7137 12.0247 11.7008 12 11.6897C11.9753 11.7008 11.9469 11.7137 11.9124 11.7295L11.7279 11.8137C11.7127 11.8206 11.6975 11.8275 11.6824 11.8345C11.3658 11.9791 11.0514 12.1227 10.7853 12.1982C10.4966 12.2802 10.0413 12.3479 9.62897 12.0376C9.22931 11.7369 9.15864 11.295 9.14552 11.0031C9.13301 10.7248 9.16711 10.3767 9.20239 10.0166C9.20393 10.0008 9.20549 9.985 9.20704 9.96915L9.22735 9.76138C9.23301 9.70346 9.23722 9.66015 9.24031 9.62297C9.2177 9.59604 9.19088 9.56492 9.15528 9.52366L9.02094 9.36793C9.01043 9.35575 8.99992 9.34358 8.98943 9.33142C8.75726 9.06243 8.53048 8.79968 8.38127 8.56472C8.22005 8.31085 8.03544 7.91585 8.18173 7.44953C8.33065 6.97483 8.71703 6.75798 9.00208 6.64662C9.26023 6.54577 9.59653 6.47044 9.93492 6.39465C9.95105 6.39103 9.96719 6.38742 9.98333 6.3838L10.1804 6.3396C10.2214 6.3304 10.2542 6.32303 10.2824 6.31646C10.2986 6.2883 10.3172 6.25537 10.3407 6.21352L10.4422 6.03307C10.4502 6.01888 10.4581 6.0047 10.4661 5.99053C10.6412 5.67892 10.812 5.37499 10.9817 5.15542Z" fill="#2E2E2E"/>
</svg>
