<svg width="24" height="24" viewBox="0 0 24 24" fill="none" xmlns="http://www.w3.org/2000/svg">
<path fill-rule="evenodd" clip-rule="evenodd" d="M3.0044 2.03968C2.60467 1.90534 2.1726 2.12315 2.03936 2.52618C1.90611 2.92921 2.12215 3.36483 2.52188 3.49917L2.79136 3.58974C3.47943 3.82099 3.93434 3.9751 4.26947 4.13229C4.58681 4.28113 4.72401 4.40092 4.81192 4.5239C4.89983 4.64687 4.96915 4.81598 5.00885 5.16659C5.05078 5.53685 5.05193 6.02071 5.05193 6.75197L5.05193 9.49228C5.05191 10.8949 5.05189 12.0255 5.17046 12.9147C5.29357 13.8378 5.55693 14.6151 6.16922 15.2325C6.78152 15.8498 7.55246 16.1154 8.46808 16.2395C9.35 16.359 10.4713 16.359 11.8625 16.359H20.0563C20.4776 16.359 20.8192 16.0146 20.8192 15.5898C20.8192 15.1649 20.4776 14.8205 20.0563 14.8205H11.9183C10.4581 14.8205 9.43978 14.8189 8.6714 14.7147C7.92498 14.6136 7.5297 14.4285 7.24817 14.1446C7.1498 14.0455 7.0634 13.9323 6.98833 13.7949H17.064C17.5201 13.7949 17.9213 13.795 18.2543 13.7587C18.6149 13.7195 18.9642 13.6323 19.2928 13.4138C19.6215 13.1953 19.8386 12.9059 20.0163 12.5873C20.1806 12.2929 20.3386 11.9211 20.5182 11.4984L20.9931 10.3813C21.3842 9.46129 21.7114 8.6916 21.8752 8.06561C22.0461 7.41255 22.0906 6.73071 21.6875 6.1144C21.2844 5.4981 20.6453 5.27073 19.9826 5.17182C19.3474 5.07701 18.5169 5.07705 17.5241 5.07709L6.53381 5.07709C6.53101 5.04838 6.52804 5.02004 6.52487 4.99208C6.46856 4.49484 6.34588 4.03858 6.04976 3.62435C5.75365 3.21013 5.36314 2.9485 4.91307 2.7374C4.48966 2.5388 3.95121 2.35786 3.31404 2.14374L3.0044 2.03968ZM6.5778 6.61553C6.5778 6.64655 6.5778 6.67779 6.5778 6.70926L6.5778 9.436C6.5778 10.638 6.57888 11.5431 6.6355 12.2565H17.0267C17.5312 12.2565 17.8491 12.2554 18.0905 12.2292C18.3135 12.2049 18.3993 12.165 18.4528 12.1294C18.5064 12.0938 18.5765 12.0301 18.6865 11.833C18.8055 11.6196 18.9317 11.3253 19.1304 10.8578L19.5664 9.83222C19.9881 8.84023 20.2683 8.17583 20.3998 7.67321C20.5276 7.18477 20.4628 7.03654 20.4136 6.9613C20.3644 6.88606 20.2548 6.76765 19.7592 6.69368C19.2492 6.61755 18.5331 6.61553 17.4627 6.61553H6.5778Z" fill="#2E2E2E"/>
<path fill-rule="evenodd" clip-rule="evenodd" d="M6.06917 19.6923C6.06917 20.9668 7.0939 21.9999 8.35797 21.9999C9.62204 21.9999 10.6468 20.9668 10.6468 19.6923C10.6468 18.4178 9.62204 17.3846 8.35797 17.3846C7.0939 17.3846 6.06917 18.4178 6.06917 19.6923ZM8.35797 20.4615C7.93661 20.4615 7.59504 20.1171 7.59504 19.6923C7.59504 19.2674 7.93661 18.923 8.35797 18.923C8.77933 18.923 9.1209 19.2674 9.1209 19.6923C9.1209 20.1171 8.77933 20.4615 8.35797 20.4615Z" fill="#2E2E2E"/>
<path fill-rule="evenodd" clip-rule="evenodd" d="M17.5131 22C16.2491 22 15.2244 20.9668 15.2244 19.6923C15.2244 18.4179 16.2491 17.3847 17.5131 17.3847C18.7772 17.3847 19.8019 18.4179 19.8019 19.6923C19.8019 20.9668 18.7772 22 17.5131 22ZM16.7502 19.6923C16.7502 20.1172 17.0918 20.4616 17.5131 20.4616C17.9345 20.4616 18.2761 20.1172 18.2761 19.6923C18.2761 19.2675 17.9345 18.9231 17.5131 18.9231C17.0918 18.9231 16.7502 19.2675 16.7502 19.6923Z" fill="#2E2E2E"/>
</svg>
