<svg width="24" height="24" viewBox="0 0 24 24" fill="none" xmlns="http://www.w3.org/2000/svg">
<path fill-rule="evenodd" clip-rule="evenodd" d="M2 6.84783C2 6.37958 2.38376 6 2.85714 6H21.1429C21.6162 6 22 6.37958 22 6.84783C22 7.31607 21.6162 7.69565 21.1429 7.69565H2.85714C2.38376 7.69565 2 7.31607 2 6.84783ZM2 12.5C2 12.0318 2.38376 11.6522 2.85714 11.6522H15.4286C15.902 11.6522 16.2857 12.0318 16.2857 12.5C16.2857 12.9682 15.902 13.3478 15.4286 13.3478H2.85714C2.38376 13.3478 2 12.9682 2 12.5ZM2 18.1522C2 17.6839 2.38376 17.3043 2.85714 17.3043H8.57143C9.04482 17.3043 9.42857 17.6839 9.42857 18.1522C9.42857 18.6204 9.04482 19 8.57143 19H2.85714C2.38376 19 2 18.6204 2 18.1522Z" fill="#2E2E2E"/>
</svg>
