<svg width="12" height="13" viewBox="0 0 12 13" fill="none" xmlns="http://www.w3.org/2000/svg">
<path d="M4.2919 2.54503C5.05189 1.18168 5.43188 0.5 6 0.5C6.56812 0.5 6.94811 1.18167 7.7081 2.54502L7.90472 2.89774C8.12069 3.28516 8.22867 3.47887 8.39703 3.60668C8.5654 3.7345 8.77509 3.78194 9.19447 3.87683L9.57628 3.96322C11.0521 4.29713 11.79 4.46409 11.9655 5.02864C12.1411 5.59319 11.6381 6.18144 10.6319 7.35795L10.3716 7.66233C10.0857 7.99666 9.94279 8.16383 9.87848 8.37063C9.81417 8.57743 9.83578 8.80047 9.87901 9.24653L9.91836 9.65264C10.0705 11.2224 10.1465 12.0072 9.68691 12.3561C9.22729 12.705 8.5364 12.3869 7.1546 11.7507L6.79711 11.5861C6.40445 11.4053 6.20811 11.3149 6 11.3149C5.79189 11.3149 5.59556 11.4053 5.20289 11.5861L4.8454 11.7507C3.46361 12.3869 2.77271 12.705 2.31309 12.3561C1.85347 12.0072 1.92953 11.2224 2.08164 9.65264L2.12099 9.24653C2.16422 8.80047 2.18583 8.57743 2.12152 8.37063C2.05721 8.16383 1.91426 7.99666 1.62835 7.66233L1.36806 7.35796C0.361949 6.18144 -0.141105 5.59319 0.0344526 5.02864C0.21001 4.46409 0.947914 4.29713 2.42372 3.96322L2.80553 3.87683C3.22491 3.78194 3.4346 3.7345 3.60297 3.60668C3.77133 3.47887 3.87932 3.28516 4.09528 2.89774L4.2919 2.54503Z" fill="#73270D"/>
</svg>
