<svg width="20" height="21" viewBox="0 0 20 21" fill="none" xmlns="http://www.w3.org/2000/svg">
<path fill-rule="evenodd" clip-rule="evenodd" d="M9.34139 2.41452C8.97514 2.8928 8.56174 3.63074 7.96126 4.708L7.65644 5.25485C7.63807 5.28781 7.61993 5.32046 7.60196 5.35279C7.32222 5.85625 7.08612 6.28117 6.70567 6.56999C6.32112 6.86194 5.85233 6.96729 5.30751 7.08974C5.27249 7.09761 5.23716 7.10555 5.20152 7.11361L4.6096 7.24755C3.44191 7.51176 2.64754 7.69355 2.10344 7.90799C1.57249 8.11724 1.46042 8.28869 1.4177 8.42607C1.37261 8.57106 1.37127 8.79285 1.68869 9.2971C2.01086 9.8089 2.55437 10.4473 3.34924 11.3768L3.75277 11.8487C3.77623 11.8762 3.79947 11.9033 3.82247 11.9301C4.19735 12.3674 4.50993 12.7321 4.65331 13.1932C4.79582 13.6515 4.74858 14.1331 4.69131 14.717C4.6878 14.7528 4.68425 14.789 4.6807 14.8256L4.61969 15.4553C4.49961 16.6945 4.41865 17.5478 4.44603 18.1624C4.47336 18.776 4.60293 18.9456 4.70595 19.0238C4.79758 19.0933 4.96696 19.1703 5.51878 19.0122C6.07956 18.8515 6.82487 18.5105 7.91824 18.0071L8.47246 17.7519C8.50659 17.7362 8.5404 17.7205 8.57391 17.705C9.08068 17.4707 9.52032 17.2675 10 17.2675C10.4797 17.2675 10.9193 17.4707 11.4261 17.705C11.4596 17.7205 11.4934 17.7362 11.5275 17.7519L12.0818 18.0071C13.1751 18.5105 13.9204 18.8515 14.4812 19.0122C15.033 19.1703 15.2024 19.0933 15.294 19.0238C15.3971 18.9456 15.5266 18.776 15.554 18.1624C15.5814 17.5478 15.5004 16.6945 15.3803 15.4553L15.3193 14.8256C15.3158 14.789 15.3122 14.7528 15.3087 14.717C15.2514 14.1331 15.2042 13.6515 15.3467 13.1932C15.4901 12.7321 15.8027 12.3674 16.1775 11.9301C16.2005 11.9033 16.2238 11.8762 16.2472 11.8487L16.6508 11.3768C17.4456 10.4473 17.9891 9.8089 18.3113 9.2971C18.6287 8.79285 18.6274 8.57106 18.5823 8.42607C18.5396 8.28869 18.4275 8.11724 17.8966 7.90799C17.3525 7.69355 16.5581 7.51176 15.3904 7.24755L14.7985 7.11361C14.7628 7.10554 14.7275 7.0976 14.6925 7.08974C14.1477 6.96729 13.6789 6.86194 13.2943 6.56999C12.9139 6.28117 12.6778 5.85625 12.398 5.35279C12.3801 5.32046 12.3619 5.28781 12.3436 5.25485L12.0387 4.708C11.4383 3.63074 11.0249 2.8928 10.6586 2.41452C10.2927 1.9367 10.1058 1.89536 10 1.89536C9.89418 1.89536 9.70728 1.93669 9.34139 2.41452ZM8.23361 1.56615C8.67702 0.987104 9.22506 0.5 10 0.5C10.7749 0.5 11.323 0.987103 11.7664 1.56615C12.2021 2.13511 12.6641 2.96399 13.2287 3.97702L13.5623 4.57544C13.9274 5.2305 14.0208 5.36965 14.138 5.4586C14.2508 5.54421 14.3962 5.59196 15.1064 5.75265L15.7575 5.89998C16.8511 6.14739 17.752 6.35121 18.4081 6.6098C19.0892 6.87821 19.6852 7.27383 19.9147 8.01173C20.1417 8.74201 19.8865 9.41388 19.4921 10.0405C19.1089 10.6493 18.4967 11.3651 17.749 12.2395L17.3076 12.7556C16.8267 13.318 16.7263 13.4556 16.679 13.6075C16.6309 13.7623 16.6354 13.9413 16.7081 14.691L16.7746 15.3777C16.8879 16.5461 16.9802 17.4989 16.9479 18.2245C16.915 18.9631 16.7472 19.6724 16.1377 20.1352C15.5168 20.6066 14.7943 20.5534 14.0969 20.3536C13.4206 20.1598 12.5776 19.7716 11.5539 19.3002L10.944 19.0193C10.2767 18.7121 10.1339 18.6628 10 18.6628C9.86612 18.6628 9.72327 18.7121 9.05601 19.0193L8.44612 19.3002C7.42241 19.7716 6.57936 20.1598 5.9031 20.3536C5.20567 20.5534 4.48322 20.6066 3.8623 20.1352C3.25277 19.6724 3.08503 18.9631 3.05213 18.2245C3.0198 17.4989 3.11215 16.5461 3.22539 15.3777L3.29192 14.691C3.36457 13.9413 3.3691 13.7623 3.32096 13.6075C3.27373 13.4556 3.17327 13.318 2.69236 12.7556L2.251 12.2395C1.50327 11.3651 0.891136 10.6493 0.507896 10.0405C0.113467 9.41388 -0.141736 8.74201 0.0853481 8.01173C0.314798 7.27383 0.910799 6.87821 1.59187 6.6098C2.24799 6.35121 3.1489 6.14739 4.24247 5.89998L4.30169 5.88658L4.89361 5.75265C5.60375 5.59196 5.74924 5.54421 5.86202 5.4586C5.97918 5.36965 6.07259 5.2305 6.43772 4.57544L6.77129 3.97702C7.33593 2.96399 7.79793 2.13511 8.23361 1.56615Z" fill="#111111"/>
</svg>
