<svg width="24" height="24" viewBox="0 0 24 24" fill="none" xmlns="http://www.w3.org/2000/svg">
<path d="M7.28977 12.6208C7.42213 12.2682 7.66429 11.9566 7.99895 11.7431L7.99965 11.7426L17.0062 6.00858L17.0072 6.00797C17.5361 5.67224 18.1003 5.91105 18.359 6.26206C18.6124 6.60598 18.6755 7.18723 18.2451 7.6005C18.245 7.60059 18.2449 7.60067 18.2449 7.60076C18.2447 7.60088 18.2446 7.60101 18.2445 7.60113L10.8123 14.7424C10.8122 14.7425 10.8122 14.7426 10.8121 14.7426C10.6935 14.8567 10.6126 15.0144 10.5895 15.1908C10.5895 15.1908 10.5895 15.1908 10.5895 15.1909L10.3364 17.1295C10.3364 17.1296 10.3364 17.1296 10.3364 17.1297L10.3363 17.1304L9.49014 17.0199C9.4566 17.2789 9.10467 17.3046 9.03553 17.054L7.28977 12.6208ZM7.28977 12.6208L7.26882 12.6127L3.34836 11.1002L21.044 4.0438L17.8534 19.908L13.6222 16.7326L13.6221 16.7325C13.3328 16.5155 12.9783 16.4009 12.6139 16.4114C12.2495 16.4219 11.9024 16.5567 11.6262 16.7893L11.6259 16.7895L9.42709 18.6424L9.25875 18.0828L7.28977 12.6208ZM18.2558 20.21L18.2554 20.2097L18.2558 20.21ZM9.56256 19.0928L9.56245 19.0924C9.56251 19.0926 9.56257 19.0928 9.56263 19.093L9.56256 19.0928Z" fill="#73270D" stroke="#73270D" stroke-width="1.70667"/>
</svg>
