<svg width="24" height="24" viewBox="0 0 24 24" fill="none" xmlns="http://www.w3.org/2000/svg">
<path d="M6 13.5C5.70333 13.5 5.41332 13.412 5.16664 13.2472C4.91997 13.0824 4.72771 12.8481 4.61418 12.574C4.50065 12.2999 4.47094 11.9983 4.52882 11.7074C4.5867 11.4164 4.72956 11.1491 4.93934 10.9393C5.14912 10.7296 5.41639 10.5867 5.70737 10.5288C5.99834 10.4709 6.29994 10.5006 6.57403 10.6142C6.84812 10.7277 7.08238 10.92 7.24721 11.1666C7.41203 11.4133 7.5 11.7033 7.5 12C7.5 12.3978 7.34197 12.7794 7.06066 13.0607C6.77936 13.342 6.39783 13.5 6 13.5ZM16.5 12C16.5 12.2967 16.588 12.5867 16.7528 12.8334C16.9176 13.08 17.1519 13.2723 17.426 13.3858C17.7001 13.4994 18.0017 13.5291 18.2926 13.4712C18.5836 13.4133 18.8509 13.2704 19.0607 13.0607C19.2704 12.8509 19.4133 12.5836 19.4712 12.2926C19.5291 12.0017 19.4994 11.7001 19.3858 11.426C19.2723 11.1519 19.08 10.9176 18.8334 10.7528C18.5867 10.588 18.2967 10.5 18 10.5C17.6022 10.5 17.2206 10.658 16.9393 10.9393C16.658 11.2206 16.5 11.6022 16.5 12ZM13.5 12C13.5 11.7033 13.412 11.4133 13.2472 11.1666C13.0824 10.92 12.8481 10.7277 12.574 10.6142C12.2999 10.5006 11.9983 10.4709 11.7074 10.5288C11.4164 10.5867 11.1491 10.7296 10.9393 10.9393C10.7296 11.1491 10.5867 11.4164 10.5288 11.7074C10.4709 11.9983 10.5007 12.2999 10.6142 12.574C10.7277 12.8481 10.92 13.0824 11.1666 13.2472C11.4133 13.412 11.7033 13.5 12 13.5C12.3978 13.5 12.7794 13.342 13.0607 13.0607C13.342 12.7794 13.5 12.3978 13.5 12Z" fill="#111111"/>
</svg>
